<svg width="48" height="48" viewBox="0 0 48 48" xmlns="http://www.w3.org/2000/svg">
<path d="M18 21.5C17.7239 21.5 17.5 21.7239 17.5 22C17.5 22.2761 17.7239 22.5 18 22.5V21.5ZM19.5 22.5C19.7761 22.5 20 22.2761 20 22C20 21.7239 19.7761 21.5 19.5 21.5V22.5ZM18 23.5C17.7239 23.5 17.5 23.7239 17.5 24C17.5 24.2761 17.7239 24.5 18 24.5V23.5ZM19.5 24.5C19.7761 24.5 20 24.2761 20 24C20 23.7239 19.7761 23.5 19.5 23.5V24.5ZM37.5243 29.6539C37.6093 29.9166 37.8912 30.0607 38.1539 29.9757C38.4166 29.8907 38.5607 29.6088 38.4757 29.3461L37.5243 29.6539ZM32.5 12.5L32.9757 12.3461L32.8937 12.0925L32.6374 12.0192L32.5 12.5ZM29.1374 11.0192C28.8718 10.9434 28.5951 11.0971 28.5192 11.3626C28.4434 11.6282 28.5971 11.9049 28.8626 11.9808L29.1374 11.0192ZM36.5 14.5L36.9808 14.3626L36.8373 13.8605L36.3419 14.0257L36.5 14.5ZM37.5 18L37.0192 18.1374L37.0797 18.3488L37.2764 18.4472L37.5 18ZM41.5 20V20.5L41.7236 19.5528L41.5 20ZM35 20V19.5H34.9266L34.8563 19.5211L35 20ZM28.5 26.5L28.0211 26.3563L28.0211 26.3563L28.5 26.5ZM24 30.595V31.095H24.0091L24.0182 31.0947L24 30.595ZM20.5 30.595L20.4684 31.094L20.4842 31.095H20.5V30.595ZM16.7436 24.7812L17.175 24.5285L17.175 24.5285L16.7436 24.7812ZM8.50005 27.3455L8.42369 26.8513L8.42369 26.8513L8.50005 27.3455ZM7.66636 28.4981L7.17316 28.5803L7.66636 28.4981ZM7.8307 29.4842L8.3239 29.402L8.3239 29.402L7.8307 29.4842ZM9.01039 30.3009L8.91374 29.8104L8.91374 29.8104L9.01039 30.3009ZM11.5555 17.4475L11.5832 16.9483L11.5832 16.9483L11.5555 17.4475ZM4.55547 17.0586L4.52773 17.5579L4.55547 17.0586ZM4.44453 23.0525L4.41679 23.5517L4.4168 23.5517L4.44453 23.0525ZM11.4445 23.4414L11.4723 22.9421L11.4723 22.9421L11.4445 23.4414ZM4.05279 17.2236C4.17628 17.4706 4.47662 17.5707 4.72361 17.4472C4.9706 17.3237 5.07071 17.0234 4.94721 16.7764L4.05279 17.2236ZM3.5 15L3.52378 14.5006L2.67096 14.46L3.05279 15.2236L3.5 15ZM13.3578 15.4694L13.3341 15.9689L13.3341 15.9689L13.3578 15.4694ZM14.2508 16.0916L13.7941 16.2952L13.7941 16.2952L14.2508 16.0916ZM22.2236 19.9472L21.7764 20.1708L21.7764 20.1708L22.2236 19.9472ZM29.5 21C29.7761 21 30 20.7762 30 20.5C30 20.2239 29.7761 20 29.5 20V21ZM27.5 14L27.4293 14.495L27.4293 14.495L27.5 14ZM33.1583 15.3708L33.3281 14.9005L33.3281 14.9005L33.1583 15.3708ZM33.8475 15.3842L34.0056 15.8585L34.0056 15.8585L33.8475 15.3842ZM25.5 24.3819L25.1665 24.7545L25.5 24.3819ZM26.9051 23.2931C27.067 23.0694 27.0168 22.7568 26.7931 22.5949C26.5694 22.433 26.2568 22.4832 26.0949 22.7069L26.9051 23.2931ZM23.4702 22.8299C23.3762 22.5702 23.0896 22.4359 22.8299 22.5298C22.5702 22.6238 22.4359 22.9104 22.5298 23.1701L23.4702 22.8299ZM18 22.5H19.5V21.5H18V22.5ZM18 24.5H19.5V23.5H18V24.5ZM44.5 29C44.5 32.5899 41.5899 35.5 38 35.5V36.5C42.1421 36.5 45.5 33.1421 45.5 29H44.5ZM38 35.5C34.4101 35.5 31.5 32.5899 31.5 29H30.5C30.5 33.1421 33.8579 36.5 38 36.5V35.5ZM31.5 29C31.5 25.4101 34.4101 22.5 38 22.5V21.5C33.8579 21.5 30.5 24.8579 30.5 29H31.5ZM38 22.5C41.5899 22.5 44.5 25.4101 44.5 29H45.5C45.5 24.8579 42.1421 21.5 38 21.5V22.5ZM15.5 29C15.5 32.5899 12.5899 35.5 9 35.5V36.5C13.1421 36.5 16.5 33.1421 16.5 29H15.5ZM9 35.5C5.41015 35.5 2.5 32.5899 2.5 29H1.5C1.5 33.1421 4.85786 36.5 9 36.5V35.5ZM12.3495 23.4283C13.4417 24.0863 14.3246 25.0565 14.8747 26.2145L15.778 25.7855C15.1431 24.4489 14.125 23.3306 12.8656 22.5717L12.3495 23.4283ZM2.5 29C2.5 26.7149 3.67875 24.7049 5.46372 23.5451L4.9189 22.7066C2.86208 24.0429 1.5 26.3623 1.5 29H2.5ZM41.5 29C41.5 30.933 39.933 32.5 38 32.5V33.5C40.4853 33.5 42.5 31.4853 42.5 29H41.5ZM38 32.5C36.067 32.5 34.5 30.933 34.5 29H33.5C33.5 31.4853 35.5147 33.5 38 33.5V32.5ZM34.5 29C34.5 27.067 36.067 25.5 38 25.5V24.5C35.5147 24.5 33.5 26.5147 33.5 29H34.5ZM38 25.5C39.933 25.5 41.5 27.067 41.5 29H42.5C42.5 26.5147 40.4853 24.5 38 24.5V25.5ZM9 32.5C7.067 32.5 5.5 30.933 5.5 29H4.5C4.5 31.4853 6.51472 33.5 9 33.5V32.5ZM5.5 29C5.5 27.067 7.067 25.5 9 25.5V24.5C6.51472 24.5 4.5 26.5147 4.5 29H5.5ZM9 25.5C10.1905 25.5 11.2424 26.0939 11.8754 27.0039L12.6963 26.4328C11.8843 25.2656 10.5316 24.5 9 24.5V25.5ZM12.4729 29.4381C12.2577 31.1641 10.7845 32.5 9 32.5V33.5C11.2952 33.5 13.1883 31.7822 13.4652 29.5619L12.4729 29.4381ZM38.4757 29.3461L32.9757 12.3461L32.0243 12.6539L37.5243 29.6539L38.4757 29.3461ZM32.6374 12.0192L29.1374 11.0192L28.8626 11.9808L32.3626 12.9808L32.6374 12.0192ZM36.0192 14.6374L37.0192 18.1374L37.9808 17.8626L36.9808 14.3626L36.0192 14.6374ZM37.2764 18.4472L41.2764 20.4472L41.7236 19.5528L37.7236 17.5528L37.2764 18.4472ZM41.5 19.5H35V20.5H41.5V19.5ZM34.8563 19.5211C33.0971 20.0488 29.2868 22.1372 28.0211 26.3563L28.9789 26.6437C30.1132 22.8628 33.5695 20.9512 35.1437 20.4789L34.8563 19.5211ZM28.0211 26.3563C27.5705 27.8583 26.8702 28.773 26.1457 29.3199C25.418 29.8693 24.6341 30.0716 23.9818 30.0953L24.0182 31.0947C24.8445 31.0646 25.8339 30.8083 26.7482 30.118C27.6658 29.4253 28.4762 28.3193 28.9789 26.6437L28.0211 26.3563ZM24 30.095H20.5V31.095H24V30.095ZM17.175 24.5285C16.6713 23.6686 15.9434 22.5962 15.1448 21.7765C14.7462 21.3674 14.3116 21.002 13.8608 20.7622C13.4107 20.5227 12.8983 20.385 12.3787 20.5149L12.6213 21.4851C12.8148 21.4367 13.066 21.4721 13.3912 21.645C13.7157 21.8177 14.0679 22.1042 14.4286 22.4744C15.1487 23.2135 15.8295 24.21 16.3122 25.0339L17.175 24.5285ZM17.1312 25.5059L8.42369 26.8513L8.5764 27.8396L17.2839 26.4941L17.1312 25.5059ZM7.17316 28.5803L7.3375 29.5664L8.3239 29.402L8.15955 28.4159L7.17316 28.5803ZM20.5316 30.096C20.2619 30.0789 19.944 29.9362 19.5963 29.6195C19.2507 29.3048 18.906 28.8444 18.5916 28.2624L17.7117 28.7376C18.0623 29.3868 18.471 29.9472 18.9229 30.3589C19.3727 30.7685 19.8964 31.0578 20.4684 31.094L20.5316 30.096ZM18.5916 28.2624C18.2284 27.59 17.9163 26.7747 17.6927 25.8789L16.7225 26.1211C16.9636 27.0873 17.3038 27.9824 17.7117 28.7376L18.5916 28.2624ZM9.10704 30.7915L18.2483 28.9906L18.055 28.0094L8.91374 29.8104L9.10704 30.7915ZM7.3375 29.5664C7.47653 30.4006 8.2773 30.955 9.10704 30.7915L8.91374 29.8104C8.63716 29.8649 8.37024 29.6801 8.3239 29.402L7.3375 29.5664ZM8.42369 26.8513C7.59812 26.9789 7.03583 27.7563 7.17316 28.5803L8.15955 28.4159C8.11378 28.1413 8.30121 27.8821 8.5764 27.8396L8.42369 26.8513ZM16.3122 25.0339C16.4987 25.3522 16.6217 25.7172 16.7225 26.1211L17.6927 25.8789C17.5817 25.4342 17.4307 24.9649 17.175 24.5285L16.3122 25.0339ZM13 21V18.446H12V21H13ZM11.5832 16.9483L4.5832 16.5594L4.52773 17.5579L11.5277 17.9468L11.5832 16.9483ZM3 18.0571V22.054H4V18.0571H3ZM4.4168 23.5517L11.4168 23.9406L11.4723 22.9421L4.47226 22.5532L4.4168 23.5517ZM13 22.4429V21H12V22.4429H13ZM11.4168 23.9406C12.2766 23.9884 13 23.304 13 22.4429H12C12 22.7299 11.7589 22.9581 11.4723 22.9421L11.4168 23.9406ZM3 22.054C3 22.8501 3.62192 23.5075 4.41679 23.5517L4.47227 22.5532C4.20731 22.5385 4 22.3194 4 22.054H3ZM4.5832 16.5594C3.7234 16.5116 3 17.196 3 18.0571H4C4 17.7701 4.24113 17.5419 4.52773 17.5579L4.5832 16.5594ZM13 18.446C13 17.6499 12.3781 16.9925 11.5832 16.9483L11.5277 17.9468C11.7927 17.9615 12 18.1806 12 18.446H13ZM4.94721 16.7764L3.94721 14.7764L3.05279 15.2236L4.05279 17.2236L4.94721 16.7764ZM3.47622 15.4994L13.3341 15.9689L13.3816 14.97L3.52378 14.5006L3.47622 15.4994ZM13.7941 16.2952C13.9873 16.7286 14.2299 17.2276 14.4709 17.6246C14.5901 17.8209 14.7201 18.0111 14.8542 18.1583C14.9211 18.2317 15.0017 18.3086 15.0949 18.3702C15.1843 18.4292 15.3244 18.5 15.5 18.5V17.5C15.5495 17.5 15.5874 17.5103 15.6101 17.5186C15.6325 17.5268 15.6445 17.5348 15.6459 17.5357C15.6466 17.5361 15.6289 17.5238 15.5934 17.4848C15.5227 17.4072 15.4315 17.2799 15.3257 17.1056C15.1166 16.7612 14.8938 16.3059 14.7074 15.888L13.7941 16.2952ZM15.5 18.5C15.6721 18.5 16.681 18.58 17.92 18.6857C19.1396 18.7898 20.5386 18.9147 21.4547 18.998L21.5453 18.0021C20.628 17.9187 19.2271 17.7936 18.005 17.6893C16.8024 17.5867 15.7279 17.5 15.5 17.5V18.5ZM21.0528 18.7236L21.7764 20.1708L22.6708 19.7236L21.9472 18.2764L21.0528 18.7236ZM23.118 21H29.5V20H23.118V21ZM21.9472 18.7236C22.3432 17.9316 23.1097 16.7593 24.1019 15.8422C25.102 14.9178 26.2478 14.3262 27.4293 14.495L27.5707 13.505C25.9522 13.2738 24.5147 14.0989 23.4231 15.1078C22.3237 16.1241 21.4901 17.4017 21.0528 18.2764L21.9472 18.7236ZM27.4293 14.495C29.8721 14.844 31.9802 15.4771 32.9885 15.8411L33.3281 14.9005C32.2667 14.5174 30.0918 13.8652 27.5707 13.505L27.4293 14.495ZM34.0056 15.8585L36.6581 14.9743L36.3419 14.0257L33.6894 14.9098L34.0056 15.8585ZM32.9885 15.8411C33.3097 15.9571 33.6677 15.9711 34.0056 15.8585L33.6894 14.9098C33.5785 14.9468 33.4518 14.9452 33.3281 14.9005L32.9885 15.8411ZM21.7764 20.1708C22.0305 20.679 22.5499 21 23.118 21V20C22.9286 20 22.7555 19.893 22.6708 19.7236L21.7764 20.1708ZM13.3341 15.9689C13.5265 15.978 13.7073 16.1005 13.7941 16.2952L14.7074 15.888C14.4753 15.3674 13.9715 14.9981 13.3816 14.97L13.3341 15.9689ZM25.5 25.5C25.5 26.0523 25.0523 26.5 24.5 26.5V27.5C25.6046 27.5 26.5 26.6046 26.5 25.5H25.5ZM24.5 26.5C23.9477 26.5 23.5 26.0523 23.5 25.5H22.5C22.5 26.6046 23.3954 27.5 24.5 27.5V26.5ZM24.5 24.5C24.7564 24.5 24.9893 24.5959 25.1665 24.7545L25.8335 24.0094C25.48 23.693 25.0119 23.5 24.5 23.5V24.5ZM25.1665 24.7545C25.3719 24.9383 25.5 25.2039 25.5 25.5H26.5C26.5 24.9076 26.2418 24.3749 25.8335 24.0094L25.1665 24.7545ZM25.9051 24.6751L26.9051 23.2931L26.0949 22.7069L25.0949 24.0888L25.9051 24.6751ZM23.5 25.5C23.5 25.2039 23.6281 24.9383 23.8335 24.7545L23.1665 24.0094C22.7582 24.3749 22.5 24.9076 22.5 25.5H23.5ZM23.8335 24.7545C24.0107 24.5959 24.2436 24.5 24.5 24.5V23.5C23.9881 23.5 23.52 23.693 23.1665 24.0094L23.8335 24.7545ZM23.9702 24.2118L23.4702 22.8299L22.5298 23.1701L23.0298 24.5521L23.9702 24.2118Z"/>
</svg>
