<svg width="32" height="32" viewBox="0 0 32 32" fill="none" xmlns="http://www.w3.org/2000/svg">
<path d="M20.666 17H12.666C12.1193 17 11.666 16.5467 11.666 16C11.666 15.4533 12.1193 15 12.666 15H20.666C21.2127 15 21.666 15.4533 21.666 16C21.666 16.5467 21.2127 17 20.666 17Z" fill="#292D32"/>
<path d="M15.3326 21.0001C15.0793 21.0001 14.8259 20.9068 14.6259 20.7068L10.6259 16.7068C10.2393 16.3201 10.2393 15.6801 10.6259 15.2934L14.6259 11.2934C15.0126 10.9068 15.6526 10.9068 16.0393 11.2934C16.4259 11.6801 16.4259 12.3201 16.0393 12.7068L12.7459 16.0001L16.0393 19.2934C16.4259 19.6801 16.4259 20.3201 16.0393 20.7068C15.8393 20.9068 15.5859 21.0001 15.3326 21.0001Z" fill="#292D32"/>
</svg>
