<svg width="48" height="48" viewBox="0 0 48 48" xmlns="http://www.w3.org/2000/svg">
<path d="M24.5 15L27.5 16L29.3964 18.2576M30.3018 19.3354L29.6 18.5M30.3018 19.3354V22.9177M30.3018 19.3354L30.7471 19.8656M29.6 18.5L29.3964 18.2576M29.6 18.5C29.5838 18.4988 29.5677 18.4977 29.5515 18.4966M29.6 18.5C29.5827 18.5 29.5665 18.4988 29.5515 18.4966M29.3964 18.2576C29.4196 17.8565 29.9174 17.0268 30.42 16.2981C30.7732 15.786 31.3647 15.5 31.9868 15.5H33V19.8656H30.7471M29.3964 18.2576C29.3886 18.3924 29.4343 18.4787 29.5515 18.4966M21 22C21.0462 21.8914 21.1052 21.7746 21.1778 21.6519M21 22L21.5 24H29.5L30.3018 22.9177M21 22L16.292 24.354M21 22C21.1237 21.8763 21.1785 21.7603 21.1778 21.6519M21 22H15.5M21.1778 21.6519C21.9934 20.2727 24.5134 18.1462 29.5515 18.4966M21.1778 21.6519C21.1725 20.884 18.3763 20.5 17.5 20.5C16.9343 20.5 15 18 14 18.5V21C14 22.2 15 22 15.5 22M30.3018 22.9177V26.5C30.0345 28.3333 28.3 31.9 23.5 31.5H13.5L9 28L16.292 24.354M16.292 24.354C16.292 24.354 15.5 22.5 15.5 22M38 28.5L30.7471 19.8656M21 28H17.5M44 28C44 31.3137 41.3137 34 38 34C34.6863 34 32 31.3137 32 28C32 24.6863 34.6863 22 38 22C41.3137 22 44 24.6863 44 28ZM15 28C15 31.3137 12.3137 34 9 34C5.68629 34 3 31.3137 3 28C3 24.6863 5.68629 22 9 22C12.3137 22 15 24.6863 15 28ZM41 28C41 29.6569 39.6569 31 38 31C36.3431 31 35 29.6569 35 28C35 26.3431 36.3431 25 38 25C39.6569 25 41 26.3431 41 28ZM12 28C12 29.6569 10.6569 31 9 31C7.34315 31 6 29.6569 6 28C6 26.3431 7.34315 25 9 25C10.6569 25 12 26.3431 12 28ZM20 26L22 29.5H25.5L27.5 26H20Z" stroke-miterlimit="16" stroke-linecap="round"/>
</svg>
