<svg width="48" height="48" viewBox="0 0 48 48"  xmlns="http://www.w3.org/2000/svg">
<path d="M18.0471 28.6957H20.1176M18.0471 30.7826H20.1176M31.5059 22.4348C29.0212 29.9478 25.9843 32.8696 24.7765 33.3913H14.9412L9.76471 29.7391L17.0118 26.529M29.7882 20.8696L20.6353 24.9239M29.7882 20.8696L27.3647 18.72M29.7882 20.8696L30.5901 21.5807M20.6353 24.9239L17.0118 26.529M20.6353 24.9239C20.6353 24.4069 20.6794 23.9257 20.7608 23.4783M17.0118 26.529C15.5518 23.9028 11.7448 20.0257 6.84507 22.1813M20.7608 23.4783C21.4682 19.5913 24.9902 18.2609 26.8471 18.2609L27.3647 18.72M20.7608 23.4783H17.5287C17.2045 23.4783 16.9003 23.321 16.7128 23.0565L14.7224 20.2479C14.535 19.9833 14.2308 19.8261 13.9066 19.8261H9.80362C9.45757 19.8261 9.13612 19.6472 8.95375 19.3531L6.95213 16.1252C6.76976 15.8311 6.44831 15.6522 6.10226 15.6522H4.96974M4.96974 15.6522L6.84507 22.1813M4.96974 15.6522L4.07059 12.5217L2 12M6.84507 22.1813C5.95388 22.5733 5.02654 23.165 4.07059 24M27.3647 18.72L28.9755 13.8982C29.2014 13.2219 28.7023 12.5217 27.9943 12.5217H25.8118M39.7882 29.7391L31.9312 22.7703M31.9312 22.7703H33.9983V18.2609H32.3761C32.1475 18.2609 31.9227 18.3339 31.7573 18.493C31.1359 19.0905 30.3138 20.264 30.5901 21.5807M31.9312 22.7703L30.5901 21.5807M24.7765 28.0507C24.5017 27.8029 24.1389 27.6522 23.7412 27.6522C23.4313 27.6522 23.1426 27.7437 22.9002 27.9013M24.7765 28.0507C25.0942 28.3373 25.2941 28.7538 25.2941 29.2174C25.2941 30.0818 24.5988 30.7826 23.7412 30.7826C22.8835 30.7826 22.1882 30.0818 22.1882 29.2174C22.1882 28.6653 22.4718 28.18 22.9002 27.9013M24.7765 28.0507L25.8118 26.087M22.9002 27.9013L21.6706 26.087M46 29.7391C46 33.1969 43.2189 36 39.7882 36C36.3576 36 33.5765 33.1969 33.5765 29.7391C33.5765 26.2813 36.3576 23.4783 39.7882 23.4783C43.2189 23.4783 46 26.2813 46 29.7391ZM15.9765 29.7391C15.9765 33.1969 13.1954 36 9.76471 36C6.33404 36 3.55294 33.1969 3.55294 29.7391C3.55294 26.2813 6.33404 23.4783 9.76471 23.4783C13.1954 23.4783 15.9765 26.2813 15.9765 29.7391ZM42.8941 29.7391C42.8941 31.468 41.5036 32.8696 39.7882 32.8696C38.0729 32.8696 36.6824 31.468 36.6824 29.7391C36.6824 28.0102 38.0729 26.6087 39.7882 26.6087C41.5036 26.6087 42.8941 28.0102 42.8941 29.7391ZM12.8706 29.7391C12.8706 31.468 11.48 32.8696 9.76471 32.8696C8.04937 32.8696 6.65882 31.468 6.65882 29.7391C6.65882 28.0102 8.04937 26.6087 9.76471 26.6087C11.48 26.6087 12.8706 28.0102 12.8706 29.7391Z"/>
</svg>
