<svg width="48" height="48" viewBox="0 0 48 48" xmlns="http://www.w3.org/2000/svg">
<path d="M21 23.5V23H20.1502L20.5629 23.7428L21 23.5ZM23.5 28L23.0629 28.2428L23.2058 28.5H23.5V28ZM27 28V28.5H27.3249L27.4569 28.2031L27 28ZM29 23.5L29.4569 23.7031L29.7694 23H29V23.5ZM18 23.5C17.7239 23.5 17.5 23.7239 17.5 24C17.5 24.2761 17.7239 24.5 18 24.5V23.5ZM19.5 24.5C19.7761 24.5 20 24.2761 20 24C20 23.7239 19.7761 23.5 19.5 23.5V24.5ZM20 27.5C19.7239 27.5 19.5 27.7239 19.5 28C19.5 28.2761 19.7239 28.5 20 28.5V27.5ZM21.5 28.5C21.7761 28.5 22 28.2761 22 28C22 27.7239 21.7761 27.5 21.5 27.5V28.5ZM19 25.5C18.7239 25.5 18.5 25.7239 18.5 26C18.5 26.2761 18.7239 26.5 19 26.5V25.5ZM20.5 26.5C20.7761 26.5 21 26.2761 21 26C21 25.7239 20.7761 25.5 20.5 25.5V26.5ZM37.5275 29.1635C37.6178 29.4245 37.9026 29.5628 38.1635 29.4725C38.4245 29.3822 38.5628 29.0974 38.4725 28.8365L37.5275 29.1635ZM32.8058 13.9899L33.2783 13.8264L33.2783 13.8264L32.8058 13.9899ZM32.7452 13.9201L32.9733 13.4752L32.9733 13.4752L32.7452 13.9201ZM29.2281 11.5551C28.9824 11.4291 28.6811 11.5262 28.5551 11.7719C28.4291 12.0176 28.5262 12.3189 28.7719 12.4449L29.2281 11.5551ZM4 32.5H3.5V33H4V32.5ZM4 29.5V29H3.5V29.5H4ZM25 30C25.2761 30 25.5 29.7761 25.5 29.5C25.5 29.2239 25.2761 29 25 29V30ZM38 14.5H38.5V14H38V14.5ZM38 19.5V20H38.5V19.5H38ZM37.5976 14.5099L37.5746 14.0104L37.5746 14.0104L37.5976 14.5099ZM20.5629 23.7428L23.0629 28.2428L23.9371 27.7572L21.4371 23.2572L20.5629 23.7428ZM23.5 28.5H27V27.5H23.5V28.5ZM27.4569 28.2031L29.4569 23.7031L28.5431 23.2969L26.5431 27.7969L27.4569 28.2031ZM29 23H21V24H29V23ZM18 24.5H19.5V23.5H18V24.5ZM20 28.5H21.5V27.5H20V28.5ZM19 26.5H20.5V25.5H19V26.5ZM12 20.5C10.8422 20.5 9.07515 20.817 7.48078 21.7709C5.86975 22.7349 4.43435 24.3525 4.0068 26.9178L4.9932 27.0822C5.36565 24.8475 6.59691 23.4651 7.99422 22.6291C9.40819 21.783 10.9912 21.5 12 21.5V20.5ZM38.4725 28.8365L33.2783 13.8264L32.3332 14.1534L37.5275 29.1635L38.4725 28.8365ZM32.9733 13.4752L29.2281 11.5551L28.7719 12.4449L32.5171 14.3651L32.9733 13.4752ZM33.2783 13.8264C33.2257 13.6744 33.1164 13.5486 32.9733 13.4752L32.5171 14.3651C32.4308 14.3208 32.3649 14.245 32.3332 14.1534L33.2783 13.8264ZM43.5 29C43.5 32.0376 41.0376 34.5 38 34.5V35.5C41.5899 35.5 44.5 32.5899 44.5 29H43.5ZM38 34.5C34.9624 34.5 32.5 32.0376 32.5 29H31.5C31.5 32.5899 34.4101 35.5 38 35.5V34.5ZM32.5 29C32.5 25.9624 34.9624 23.5 38 23.5V22.5C34.4101 22.5 31.5 25.4101 31.5 29H32.5ZM38 23.5C41.0376 23.5 43.5 25.9624 43.5 29H44.5C44.5 25.4101 41.5899 22.5 38 22.5V23.5ZM17.5 29C17.5 32.0376 15.0376 34.5 12 34.5V35.5C15.5899 35.5 18.5 32.5899 18.5 29H17.5ZM12 34.5C8.96243 34.5 6.5 32.0376 6.5 29H5.5C5.5 32.5899 8.41015 35.5 12 35.5V34.5ZM6.5 29C6.5 25.9624 8.96243 23.5 12 23.5V22.5C8.41015 22.5 5.5 25.4101 5.5 29H6.5ZM12 23.5C15.0376 23.5 17.5 25.9624 17.5 29H18.5C18.5 25.4101 15.5899 22.5 12 22.5V23.5ZM40.5 29C40.5 30.3807 39.3807 31.5 38 31.5V32.5C39.933 32.5 41.5 30.933 41.5 29H40.5ZM38 31.5C36.6193 31.5 35.5 30.3807 35.5 29H34.5C34.5 30.933 36.067 32.5 38 32.5V31.5ZM35.5 29C35.5 27.6193 36.6193 26.5 38 26.5V25.5C36.067 25.5 34.5 27.067 34.5 29H35.5ZM38 26.5C39.3807 26.5 40.5 27.6193 40.5 29H41.5C41.5 27.067 39.933 25.5 38 25.5V26.5ZM9.5 29C9.5 27.6193 10.6193 26.5 12 26.5V25.5C10.067 25.5 8.5 27.067 8.5 29H9.5ZM12 26.5C13.3807 26.5 14.5 27.6193 14.5 29H15.5C15.5 27.067 13.933 25.5 12 25.5V26.5ZM34.0431 17.7969C33.0426 20.048 31.4241 23.658 29.8083 26.7031C28.9993 28.2279 28.1999 29.5938 27.4865 30.5727C27.1289 31.0636 26.8055 31.4393 26.5257 31.6874C26.2277 31.9516 26.0579 32 26 32V33C26.4421 33 26.8504 32.7359 27.1891 32.4357C27.546 32.1193 27.918 31.6786 28.2947 31.1616C29.0501 30.125 29.8757 28.7096 30.6917 27.1719C32.3259 24.092 33.9574 20.452 34.9569 18.2031L34.0431 17.7969ZM4.5 32.5V29.5H3.5V32.5H4.5ZM4 30H25V29H4V30ZM37.5 14.5V19.5H38.5V14.5H37.5ZM38 19C36.2812 19 35.5106 18.7516 35.1856 18.5659C35.0306 18.4773 34.9904 18.4108 34.9866 18.4043C34.984 18.3998 34.9877 18.405 34.9919 18.4217C34.9939 18.4298 34.996 18.4403 34.9975 18.4533C34.9982 18.4598 34.9989 18.4669 34.9993 18.4747C34.9995 18.4786 34.9997 18.4826 34.9998 18.4868C34.9999 18.489 34.9999 18.4911 35 18.4933C35 18.4944 35 18.4955 35 18.4966C35 18.4972 35 18.498 35 18.4983C35 18.4991 35 18.5 34.5 18.5C34 18.5 34 18.5009 34 18.5017C34 18.502 34 18.5029 34 18.5035C34 18.5047 34 18.5059 34 18.5071C34.0001 18.5095 34.0001 18.512 34.0002 18.5146C34.0003 18.5198 34.0006 18.5253 34.0009 18.5311C34.0016 18.5426 34.0026 18.5553 34.0042 18.5692C34.0075 18.5968 34.0129 18.6288 34.0218 18.6642C34.0396 18.7356 34.0707 18.8189 34.1228 18.9082C34.2284 19.0892 34.4069 19.2727 34.6894 19.4341C35.2394 19.7484 36.2188 20 38 20V19ZM38 14C37.8773 14 37.7324 14.0032 37.5746 14.0104L37.6205 15.0093C37.7641 15.0028 37.8936 15 38 15V14ZM37.5746 14.0104C36.8378 14.0442 35.8736 14.1992 35.0755 14.5456C34.3031 14.881 33.5 15.4869 33.5 16.5H34.5C34.5 16.1138 34.7968 15.7568 35.4737 15.4629C36.125 15.1802 36.9595 15.0397 37.6205 15.0093L37.5746 14.0104ZM33 20.5H7V21.5H33V20.5ZM8 18.5H22V17.5H8V18.5ZM22.5 19V20H23.5V19H22.5ZM22 20.5H8V21.5H22V20.5ZM7.5 20V19H6.5V20H7.5ZM8 20.5C7.72386 20.5 7.5 20.2761 7.5 20H6.5C6.5 20.8284 7.17157 21.5 8 21.5V20.5ZM22.5 20C22.5 20.2761 22.2761 20.5 22 20.5V21.5C22.8284 21.5 23.5 20.8284 23.5 20H22.5ZM22 18.5C22.2761 18.5 22.5 18.7239 22.5 19H23.5C23.5 18.1716 22.8284 17.5 22 17.5V18.5ZM8 17.5C7.17157 17.5 6.5 18.1716 6.5 19H7.5C7.5 18.7239 7.72386 18.5 8 18.5V17.5ZM23.3869 18.3167C24.177 17.3514 25.6491 16.1498 27.4652 15.6908C29.2475 15.2404 31.4077 15.4909 33.6684 17.4942L34.3316 16.7458C31.8257 14.5252 29.3261 14.1891 27.2202 14.7213C25.1481 15.245 23.5036 16.5953 22.6131 17.6833L23.3869 18.3167ZM33.5068 16.0822L34.0068 19.0822L34.9932 18.9178L34.4932 15.9178L33.5068 16.0822ZM35.416 18.7226L34.416 17.2226L33.584 17.7774L34.584 19.2774L35.416 18.7226ZM26 32H4V33H26V32Z"/>
</svg>
