<svg width="40" height="40" viewBox="0 0 40 40" fill="none" xmlns="http://www.w3.org/2000/svg">
<path d="M20.0007 37.9166C10.1173 37.9166 2.08398 29.8833 2.08398 19.9999C2.08398 10.1166 10.1173 2.08325 20.0007 2.08325C29.884 2.08325 37.9173 10.1166 37.9173 19.9999C37.9173 29.8833 29.884 37.9166 20.0007 37.9166ZM20.0007 4.58325C11.5007 4.58325 4.58398 11.4999 4.58398 19.9999C4.58398 28.4999 11.5007 35.4166 20.0007 35.4166C28.5007 35.4166 35.4173 28.4999 35.4173 19.9999C35.4173 11.4999 28.5007 4.58325 20.0007 4.58325Z" fill="#444444"/>
<path d="M15.2829 25.9668C14.9663 25.9668 14.6496 25.8501 14.3996 25.6001C13.9163 25.1168 13.9163 24.3168 14.3996 23.8334L23.8329 14.4001C24.3163 13.9168 25.1163 13.9168 25.5996 14.4001C26.0829 14.8834 26.0829 15.6834 25.5996 16.1668L16.1663 25.6001C15.9329 25.8501 15.5996 25.9668 15.2829 25.9668Z" fill="#444444"/>
<path d="M24.7163 25.9668C24.3996 25.9668 24.0829 25.8501 23.8329 25.6001L14.3996 16.1668C13.9163 15.6834 13.9163 14.8834 14.3996 14.4001C14.8829 13.9168 15.6829 13.9168 16.1663 14.4001L25.5996 23.8334C26.0829 24.3168 26.0829 25.1168 25.5996 25.6001C25.3496 25.8501 25.0329 25.9668 24.7163 25.9668Z" fill="#444444"/>
</svg>
