<svg width="48" height="48" viewBox="0 0 48 48" xmlns="http://www.w3.org/2000/svg">
<path d="M38.5 14.5H39V14H38.5V14.5ZM38.5 19.5L38.5981 19.9903L39 19.9099V19.5H38.5ZM35.9743 18.3419C35.887 18.0799 35.6039 17.9383 35.3419 18.0257C35.0799 18.113 34.9383 18.3961 35.0257 18.6581L35.9743 18.3419ZM36.2 14.9L36.6 15.2L36.6 15.2L36.2 14.9ZM34.6 16.2C34.4343 16.4209 34.4791 16.7343 34.7 16.9C34.9209 17.0657 35.2343 17.0209 35.4 16.8L34.6 16.2ZM34 13.5L34.4785 13.355L34.3938 13.0753L34.1085 13.0119L34 13.5ZM29.6085 12.0119C29.3389 11.952 29.0718 12.122 29.0119 12.3915C28.952 12.6611 29.122 12.9282 29.3915 12.9881L29.6085 12.0119ZM38.5215 30.145C38.6016 30.4093 38.8807 30.5586 39.145 30.4785C39.4093 30.3984 39.5586 30.1193 39.4785 29.855L38.5215 30.145ZM16 25L15.6251 25.3308L15.8563 25.5928L16.1818 25.4658L16 25ZM1.59466 25.2073C1.43298 25.4311 1.48339 25.7437 1.70725 25.9053C1.93112 26.067 2.24366 26.0166 2.40534 25.7927L1.59466 25.2073ZM13 19.5L12.7764 19.0528L12.692 19.095L12.6288 19.1651L13 19.5ZM14.5 19.5L14.1464 19.8536L14.1464 19.8536L14.5 19.5ZM18.2382 21.7167V21.2167H18.1956L18.1536 21.224L18.2382 21.7167ZM33 18.3636L33.1818 18.8293L33.1818 18.8293L33 18.3636ZM36.416 20.2774C36.5692 20.0476 36.5071 19.7372 36.2774 19.584C36.0476 19.4308 35.7372 19.4929 35.584 19.7226L36.416 20.2774ZM27 33L27.1213 32.5149L27.0616 32.5H27V33ZM19 33L18.6464 33.3536L18.7929 33.5H19V33ZM17 31L17.3536 30.6464L17.2071 30.5H17V31ZM19 29C19.2761 29 19.5 28.7761 19.5 28.5C19.5 28.2239 19.2761 28 19 28V29ZM27 22C26.7239 22 26.5 22.2239 26.5 22.5C26.5 22.7761 26.7239 23 27 23V22ZM31.5 22.5L31.939 22.7394L32.3423 22H31.5V22.5ZM28.5 28V28.5H28.7969L28.939 28.2394L28.5 28ZM25.5 27.5C25.2239 27.5 25 27.7239 25 28C25 28.2761 25.2239 28.5 25.5 28.5V27.5ZM24.7014 24.75C24.4253 24.75 24.2014 24.9739 24.2014 25.25C24.2014 25.5261 24.4253 25.75 24.7014 25.75V24.75ZM38 14.5V19.5H39V14.5H38ZM38.5 19.5C38.4019 19.0097 38.4021 19.0097 38.4022 19.0097C38.4022 19.0097 38.4024 19.0096 38.4024 19.0096C38.4025 19.0096 38.4026 19.0096 38.4027 19.0096C38.4028 19.0095 38.4027 19.0096 38.4025 19.0096C38.4021 19.0097 38.4012 19.0099 38.3996 19.0102C38.3965 19.0107 38.3912 19.0117 38.3838 19.0131C38.3689 19.0157 38.3456 19.0197 38.3151 19.0244C38.2537 19.0339 38.1637 19.0463 38.0534 19.057C37.8307 19.0786 37.5357 19.0921 37.2328 19.0646C36.5855 19.0057 36.1234 18.789 35.9743 18.3419L35.0257 18.6581C35.3766 19.711 36.4145 19.9943 37.1422 20.0604C37.5268 20.0954 37.888 20.0777 38.1497 20.0524C38.2816 20.0396 38.3908 20.0246 38.4682 20.0127C38.5069 20.0067 38.5378 20.0014 38.5598 19.9974C38.5708 19.9955 38.5796 19.9938 38.586 19.9926C38.5892 19.992 38.5918 19.9915 38.5938 19.9911C38.5949 19.9909 38.5957 19.9908 38.5964 19.9906C38.5968 19.9905 38.5971 19.9905 38.5974 19.9904C38.5975 19.9904 38.5977 19.9904 38.5977 19.9904C38.5979 19.9903 38.5981 19.9903 38.5 19.5ZM38.5 14H37V15H38.5V14ZM35.8 14.6L34.6 16.2L35.4 16.8L36.6 15.2L35.8 14.6ZM37 14C36.5279 14 36.0833 14.2223 35.8 14.6L36.6 15.2C36.6944 15.0741 36.8426 15 37 15V14ZM34.1085 13.0119L29.6085 12.0119L29.3915 12.9881L33.8915 13.9881L34.1085 13.0119ZM39.4785 29.855L35.6906 17.355L34.7336 17.645L38.5215 30.145L39.4785 29.855ZM35.6906 17.355L34.4785 13.355L33.5215 13.645L34.7336 17.645L35.6906 17.355ZM16.3749 24.6692C15.2462 23.39 13.3706 21.9012 11.1427 21.2375L10.8573 22.1959C12.8598 22.7924 14.5844 24.1513 15.6251 25.3308L16.3749 24.6692ZM11.1427 21.2375C9.68074 20.8021 8.05705 20.7198 6.4035 21.2998C4.75062 21.8795 3.11301 23.1049 1.59466 25.2073L2.40534 25.7927C3.8308 23.819 5.31326 22.7418 6.73446 22.2434C8.155 21.7452 9.5594 21.8093 10.8573 22.1959L11.1427 21.2375ZM11.3712 22.0517L13.3712 19.8349L12.6288 19.1651L10.6288 21.3818L11.3712 22.0517ZM13.2236 19.9472C13.3489 19.8845 13.5655 19.8066 13.7762 19.7849C13.9975 19.7621 14.1025 19.8096 14.1464 19.8536L14.8536 19.1464C14.4975 18.7904 14.0191 18.7546 13.6738 18.7901C13.3178 18.8268 12.9844 18.9488 12.7764 19.0528L13.2236 19.9472ZM14.1464 19.8536C14.4001 20.1072 15.042 20.7388 15.7897 21.2817C16.1631 21.5529 16.5777 21.813 16.9954 21.9918C17.4054 22.1673 17.8707 22.2872 18.3229 22.2095L18.1536 21.224C17.9749 21.2546 17.72 21.2142 17.3889 21.0725C17.0655 20.934 16.7182 20.7201 16.3773 20.4726C15.6962 19.978 15.0999 19.3928 14.8536 19.1464L14.1464 19.8536ZM23.3182 21.6064L15.8182 24.5342L16.1818 25.4658L23.6818 22.5379L23.3182 21.6064ZM18.2382 22.2167C19.1563 22.2167 20.855 22.3066 22.2114 22.4308L22.3026 21.435C20.9272 21.309 19.1964 21.2167 18.2382 21.2167V22.2167ZM22.2114 22.4308C22.6784 22.4736 23.0989 22.5199 23.4292 22.5671L23.5708 21.5772C23.2171 21.5266 22.7781 21.4785 22.3026 21.435L22.2114 22.4308ZM35.0303 17.0342L32.8182 17.8978L33.1818 18.8293L35.3939 17.9658L35.0303 17.0342ZM32.8182 17.8978L23.3182 21.6064L23.6818 22.5379L33.1818 18.8293L32.8182 17.8978ZM22.757 21.9329C22.757 21.0822 23.13 20.0578 23.7935 19.0817C24.4529 18.1116 25.3691 17.2349 26.389 16.6698C27.4083 16.1051 28.5004 15.8667 29.5409 16.1091C30.5733 16.3496 31.6373 17.0824 32.5726 18.623L33.4274 18.1041C32.3869 16.3901 31.1202 15.4502 29.7678 15.1352C28.4236 14.8221 27.0769 15.1455 25.9044 15.7951C24.7325 16.4444 23.7039 17.4347 22.9664 18.5196C22.233 19.5985 21.757 20.8172 21.757 21.9329H22.757ZM35.584 19.7226C34.0797 21.9791 32.2019 25.3743 30.5485 28.0765C29.7122 29.4434 28.9327 30.6351 28.2702 31.4564C27.9372 31.8692 27.6516 32.1658 27.4191 32.3438C27.1613 32.5412 27.0843 32.5057 27.1213 32.5149L26.8787 33.4851C27.3157 33.5943 27.7262 33.3682 28.027 33.1378C28.3531 32.8882 28.6971 32.5199 29.0485 32.0842C29.7548 31.2087 30.5628 29.9691 31.4015 28.5985C33.0981 25.8257 34.9203 22.5209 36.416 20.2774L35.584 19.7226ZM27 32.5H19V33.5H27V32.5ZM19.3536 32.6464L17.3536 30.6464L16.6464 31.3536L18.6464 33.3536L19.3536 32.6464ZM17 30.5H9.5V31.5H17V30.5ZM9 30V29.5H8V30H9ZM9.5 29H19V28H9.5V29ZM9 29.5C9 29.2239 9.22386 29 9.5 29V28C8.67157 28 8 28.6716 8 29.5H9ZM9.5 30.5C9.22386 30.5 9 30.2761 9 30H8C8 30.8284 8.67157 31.5 9.5 31.5V30.5ZM44.5 30C44.5 33.0376 42.0376 35.5 39 35.5V36.5C42.5899 36.5 45.5 33.5899 45.5 30H44.5ZM39 35.5C35.9624 35.5 33.5 33.0376 33.5 30H32.5C32.5 33.5899 35.4101 36.5 39 36.5V35.5ZM33.5 30C33.5 26.9624 35.9624 24.5 39 24.5V23.5C35.4101 23.5 32.5 26.4101 32.5 30H33.5ZM39 24.5C42.0376 24.5 44.5 26.9624 44.5 30H45.5C45.5 26.4101 42.5899 23.5 39 23.5V24.5ZM9 35.5C5.96243 35.5 3.5 33.0376 3.5 30H2.5C2.5 33.5899 5.41015 36.5 9 36.5V35.5ZM3.5 30C3.5 26.9624 5.96243 24.5 9 24.5V23.5C5.41015 23.5 2.5 26.4101 2.5 30H3.5ZM9 24.5C11.5621 24.5 13.7162 26.2523 14.3268 28.6246L15.2952 28.3754C14.5737 25.572 12.0294 23.5 9 23.5V24.5ZM14.4239 30.9173C13.9876 33.5181 11.7247 35.5 9 35.5V36.5C12.2212 36.5 14.8943 34.1573 15.4102 31.0827L14.4239 30.9173ZM41.5 30C41.5 31.3807 40.3807 32.5 39 32.5V33.5C40.933 33.5 42.5 31.933 42.5 30H41.5ZM39 32.5C37.6193 32.5 36.5 31.3807 36.5 30H35.5C35.5 31.933 37.067 33.5 39 33.5V32.5ZM36.5 30C36.5 28.6193 37.6193 27.5 39 27.5V26.5C37.067 26.5 35.5 28.067 35.5 30H36.5ZM39 27.5C40.3807 27.5 41.5 28.6193 41.5 30H42.5C42.5 28.067 40.933 26.5 39 26.5V27.5ZM9 32.5C7.61929 32.5 6.5 31.3807 6.5 30H5.5C5.5 31.933 7.067 33.5 9 33.5V32.5ZM6.5 30C6.5 28.6193 7.61929 27.5 9 27.5V26.5C7.067 26.5 5.5 28.067 5.5 30H6.5ZM9 27.5C9.92472 27.5 10.7328 28.0018 11.1659 28.7504L12.0315 28.2496C11.427 27.2048 10.2961 26.5 9 26.5V27.5ZM11.3579 30.8334C11.0144 31.805 10.0877 32.5 9 32.5V33.5C10.5247 33.5 11.8205 32.5253 12.3007 31.1666L11.3579 30.8334ZM22.5 28C22.5 28.8284 21.8284 29.5 21 29.5V30.5C22.3807 30.5 23.5 29.3807 23.5 28H22.5ZM21 29.5C20.1716 29.5 19.5 28.8284 19.5 28H18.5C18.5 29.3807 19.6193 30.5 21 30.5V29.5ZM19.5 28C19.5 27.1716 20.1716 26.5 21 26.5V25.5C19.6193 25.5 18.5 26.6193 18.5 28H19.5ZM21 26.5C21.8284 26.5 22.5 27.1716 22.5 28H23.5C23.5 26.6193 22.3807 25.5 21 25.5V26.5ZM27 23H31.5V22H27V23ZM28.5 27.5H25.5V28.5H28.5V27.5ZM31.0611 22.2606L29.5611 25.0106L30.439 25.4894L31.939 22.7394L31.0611 22.2606ZM29.5611 25.0106L28.0611 27.7606L28.939 28.2394L30.439 25.4894L29.5611 25.0106ZM30 24.75H24.7014V25.75H30V24.75Z"/>
</svg>
