<svg width="25" height="24" viewBox="0 0 25 24" xmlns="http://www.w3.org/2000/svg">
<path d="M15.5 22.75H9.5C4.07 22.75 1.75 20.43 1.75 15V9C1.75 3.57 4.07 1.25 9.5 1.25H11.5C11.91 1.25 12.25 1.59 12.25 2C12.25 2.41 11.91 2.75 11.5 2.75H9.5C4.89 2.75 3.25 4.39 3.25 9V15C3.25 19.61 4.89 21.25 9.5 21.25H15.5C20.11 21.25 21.75 19.61 21.75 15V13C21.75 12.59 22.09 12.25 22.5 12.25C22.91 12.25 23.25 12.59 23.25 13V15C23.25 20.43 20.93 22.75 15.5 22.75Z"/>
<path d="M9.00032 17.6901C8.39032 17.6901 7.83032 17.4701 7.42032 17.0701C6.93032 16.5801 6.72032 15.8701 6.83032 15.1201L7.26032 12.1101C7.34032 11.5301 7.72032 10.7801 8.13032 10.3701L16.0103 2.49006C18.0003 0.500059 20.0203 0.500059 22.0103 2.49006C23.1003 3.58006 23.5903 4.69006 23.4903 5.80006C23.4003 6.70006 22.9203 7.58006 22.0103 8.48006L14.1303 16.3601C13.7203 16.7701 12.9703 17.1501 12.3903 17.2301L9.38032 17.6601C9.25032 17.6901 9.12032 17.6901 9.00032 17.6901ZM17.0703 3.55006L9.19032 11.4301C9.00032 11.6201 8.78032 12.0601 8.74032 12.3201L8.31032 15.3301C8.27032 15.6201 8.33032 15.8601 8.48032 16.0101C8.63032 16.1601 8.87032 16.2201 9.16032 16.1801L12.1703 15.7501C12.4303 15.7101 12.8803 15.4901 13.0603 15.3001L20.9403 7.42006C21.5903 6.77006 21.9303 6.19006 21.9803 5.65006C22.0403 5.00006 21.7003 4.31006 20.9403 3.54006C19.3403 1.94006 18.2403 2.39006 17.0703 3.55006Z"/>
<path d="M20.3496 9.83003C20.2796 9.83003 20.2096 9.82003 20.1496 9.80003C17.5196 9.06003 15.4296 6.97003 14.6896 4.34003C14.5796 3.94003 14.8096 3.53003 15.2096 3.41003C15.6096 3.30003 16.0196 3.53003 16.1296 3.93003C16.7296 6.06003 18.4196 7.75003 20.5496 8.35003C20.9496 8.46003 21.1796 8.88003 21.0696 9.28003C20.9796 9.62003 20.6796 9.83003 20.3496 9.83003Z"/>
</svg>
