<svg width="23" height="23" viewBox="0 0 23 23" fill="none" xmlns="http://www.w3.org/2000/svg">
<path fill-rule="evenodd" clip-rule="evenodd" d="M17.046 3.78737H5.68241C4.63642 3.78737 3.78847 4.63532 3.78847 5.68131V17.0449C3.78847 18.091 4.63642 18.9389 5.68241 18.9389H17.046C18.0921 18.9389 18.94 18.091 18.94 17.0449V5.68131C18.94 4.63532 18.0921 3.78737 17.046 3.78737ZM5.68241 1.89343C3.59042 1.89343 1.89453 3.58932 1.89453 5.68131V17.0449C1.89453 19.1369 3.59042 20.8328 5.68241 20.8328H17.046C19.138 20.8328 20.8339 19.1369 20.8339 17.0449V5.68131C20.8339 3.58932 19.138 1.89343 17.046 1.89343H5.68241Z" fill="#0C0C0C"/>
<path fill-rule="evenodd" clip-rule="evenodd" d="M11.2838 9.47018C11.2838 7.90119 12.5557 6.62927 14.1247 6.62927H16.0975V8.52321H14.1247C13.6017 8.52321 13.1777 8.94719 13.1777 9.47018V11.3641H16.0975V13.2581H13.1777V18.9399H11.2838V13.2581H9.46875V11.3641H11.2838V9.47018Z" fill="#0C0C0C"/>
</svg>
