<svg width="12" height="12" viewBox="0 0 12 12" fill="none" xmlns="http://www.w3.org/2000/svg">
<path d="M7.5 11.375H4.5C1.785 11.375 0.625 10.215 0.625 7.5V4.5C0.625 1.785 1.785 0.625 4.5 0.625H7.5C10.215 0.625 11.375 1.785 11.375 4.5V7.5C11.375 10.215 10.215 11.375 7.5 11.375ZM4.5 1.375C2.195 1.375 1.375 2.195 1.375 4.5V7.5C1.375 9.805 2.195 10.625 4.5 10.625H7.5C9.805 10.625 10.625 9.805 10.625 7.5V4.5C10.625 2.195 9.805 1.375 7.5 1.375H4.5Z" fill="white"/>
<path d="M4.5 5.375C3.74 5.375 3.125 4.76 3.125 4C3.125 3.24 3.74 2.625 4.5 2.625C5.26 2.625 5.875 3.24 5.875 4C5.875 4.76 5.26 5.375 4.5 5.375ZM4.5 3.375C4.155 3.375 3.875 3.655 3.875 4C3.875 4.345 4.155 4.625 4.5 4.625C4.845 4.625 5.125 4.345 5.125 4C5.125 3.655 4.845 3.375 4.5 3.375Z" fill="white"/>
<path d="M1.33537 9.85003C1.21537 9.85003 1.09537 9.79003 1.02537 9.68503C0.910374 9.51503 0.955374 9.28003 1.13037 9.16503L3.59537 7.51003C4.13537 7.14503 4.88037 7.19003 5.37037 7.60503L5.53537 7.75003C5.78537 7.96503 6.21037 7.96503 6.45537 7.75003L8.53537 5.96503C9.06537 5.51003 9.90037 5.51003 10.4354 5.96503L11.2504 6.66503C11.4054 6.80003 11.4254 7.03503 11.2904 7.19503C11.1554 7.35003 10.9204 7.37003 10.7604 7.23503L9.94537 6.53503C9.69537 6.32003 9.27037 6.32003 9.02037 6.53503L6.94037 8.32003C6.41037 8.77503 5.57537 8.77503 5.04037 8.32003L4.87537 8.17503C4.64537 7.98003 4.26537 7.96003 4.01037 8.13503L1.54537 9.79003C1.48037 9.83003 1.40537 9.85003 1.33537 9.85003Z" fill="white"/>
</svg>
