<svg width="18" height="17" viewBox="0 0 18 17" xmlns="http://www.w3.org/2000/svg">
<path d="M8.95833 16.0833C8.7 16.0833 8.45 16.05 8.24167 15.975C5.05833 14.8833 0 11.0083 0 5.28333C0 2.36667 2.35833 0 5.25833 0C6.66667 0 7.98333 0.55 8.95833 1.53333C9.93333 0.55 11.25 0 12.6583 0C15.5583 0 17.9167 2.375 17.9167 5.28333C17.9167 11.0167 12.8583 14.8833 9.675 15.975C9.46667 16.05 9.21667 16.0833 8.95833 16.0833ZM5.25833 1.25C3.05 1.25 1.25 3.05833 1.25 5.28333C1.25 10.975 6.725 14.1417 8.65 14.8C8.8 14.85 9.125 14.85 9.275 14.8C11.1917 14.1417 16.675 10.9833 16.675 5.28333C16.675 3.05833 14.875 1.25 12.6667 1.25C11.4 1.25 10.225 1.84167 9.46667 2.86667C9.23333 3.18333 8.7 3.18333 8.46667 2.86667C7.69167 1.83333 6.525 1.25 5.25833 1.25Z"/>
</svg>
