<svg width="91" height="69" viewBox="0 0 91 69" fill="none" xmlns="http://www.w3.org/2000/svg">
<path d="M14.3623 12.7336C14.3623 12.7336 7.43453 19.3617 7.06005 26.3643V27.675C7.35963 33.3295 11.6286 36.6623 11.6286 36.6623C18.4814 43.3654 35.0705 51.791 38.965 53.7008C38.965 53.7008 39.1897 53.8131 39.3395 53.6633L39.4144 53.5136V53.3638C28.7794 30.184 14.3623 12.7336 14.3623 12.7336ZM36.7557 59.3928C36.6808 59.0932 36.3812 59.0932 36.3812 59.0932L8.74518 60.0668C11.741 65.4218 16.7963 69.5409 22.0764 68.3052C25.6713 67.369 33.9097 61.6396 36.6059 59.6923C36.8306 59.5051 36.7557 59.3553 36.7557 59.3553V59.3928ZM37.0552 56.4719C24.9224 48.2709 1.40553 35.7261 1.40553 35.7261C0.843824 37.4487 0.656588 39.0964 0.619141 40.5943V40.8564C0.619141 44.8633 2.11703 47.6718 2.11703 47.6718C5.1128 54.0004 10.8797 55.9102 10.8797 55.9102C13.501 57.0336 16.1223 57.071 16.1223 57.071C16.5716 57.1459 32.599 57.071 36.868 57.071C37.0552 57.071 37.1676 56.8838 37.1676 56.8838V56.6591C37.1676 56.5468 37.0552 56.4719 37.0552 56.4719ZM34.5463 1.68666C31.8912 2.36457 29.5236 3.87619 27.7914 5.9994C26.0591 8.12261 25.0535 10.7455 24.9224 13.4825V15.0179C25.0347 17.2647 25.5215 18.9498 25.5215 18.9498C27.993 29.8095 39.9761 47.5969 42.56 51.3416C42.7472 51.5289 42.9345 51.454 42.9345 51.454C43.0064 51.4229 43.0667 51.37 43.107 51.3029C43.1473 51.2357 43.1656 51.1576 43.1591 51.0795C47.1285 11.3855 39.0025 0.825378 39.0025 0.825378C37.8042 0.900273 34.5463 1.68666 34.5463 1.68666ZM65.6237 10.1872C65.6237 10.1872 63.7888 3.44668 56.4866 1.64922C56.4866 1.64922 54.3521 1.12496 52.1053 0.825378C52.1053 0.825378 43.9418 11.348 47.9112 51.1169C47.9486 51.3791 48.1359 51.4165 48.1359 51.4165C48.398 51.5289 48.5103 51.3042 48.5103 51.3042C51.2065 47.4471 63.1147 29.7346 65.5488 18.9498C65.5488 18.9498 66.8969 13.7072 65.6237 10.1872ZM54.6891 59.1306C54.6891 59.1306 54.427 59.1306 54.3521 59.3179C54.3521 59.3179 54.3146 59.58 54.4644 59.6923C57.0857 61.6021 65.1369 67.1818 68.9939 68.3052C68.9939 68.3052 69.5931 68.4924 70.6042 68.5299H71.1284C73.7123 68.455 78.2434 67.1443 82.3626 60.0668L54.6517 59.1306H54.6891ZM84.0103 27.6376C84.5345 19.9234 76.7455 12.771 76.7455 12.7336C76.7455 12.7336 62.3283 30.184 51.7682 53.1765C51.7682 53.1765 51.6559 53.4761 51.8431 53.6633L51.9929 53.7008H52.2176C56.187 51.7161 72.6638 43.3279 79.4791 36.6998C79.4791 36.6998 83.7856 33.2172 84.0103 27.6376ZM89.7022 35.6512C89.7022 35.6512 66.1854 48.2709 54.0525 56.4344C54.0525 56.4344 53.8653 56.5842 53.9402 56.8464C53.9402 56.8464 54.0525 57.071 54.2023 57.071C58.5462 57.071 75.0229 57.071 75.4349 56.9961C75.4349 56.9961 77.5693 56.9212 80.1906 55.9102C80.1906 55.9102 86.0324 54.0378 89.0656 47.4097C89.0656 47.4097 91.7993 41.9798 89.7022 35.6512Z" fill="#C91433"/>
</svg>
