<svg width="20" height="19" viewBox="0 0 20 19" fill="none" xmlns="http://www.w3.org/2000/svg">
<path d="M19.0594 5.55655C19.015 4.57337 18.8562 3.90068 18.6309 3.31299C18.3945 2.70682 18.0805 2.18936 17.567 1.6793C17.0536 1.16923 16.5401 0.847666 15.9343 0.614809C15.347 0.385649 14.6747 0.230411 13.6921 0.186057C12.7058 0.141704 12.3918 0.130615 9.88736 0.130615C7.37919 0.130615 7.0652 0.141704 6.08262 0.186057C5.10004 0.230411 4.42774 0.389345 3.84041 0.614809C3.23091 0.851362 2.71376 1.16553 2.204 1.6793C1.69424 2.19306 1.37287 2.70682 1.14015 3.31299C0.914824 3.90068 0.755986 4.57337 0.711659 5.55655C0.667332 6.54342 0.65625 6.85759 0.65625 9.36357C0.65625 11.8732 0.667332 12.1874 0.711659 13.1706C0.755986 14.1538 0.914824 14.8265 1.14015 15.4141C1.37656 16.0203 1.69055 16.5378 2.204 17.0478C2.71376 17.5616 3.23091 17.8795 3.83672 18.1123C4.42405 18.3415 5.09634 18.4967 6.07893 18.5411C7.0652 18.5854 7.37919 18.5965 9.88366 18.5965C12.3918 18.5965 12.7058 18.5854 13.6884 18.5411C14.671 18.4967 15.3433 18.3378 15.9306 18.1123C16.5364 17.8758 17.0536 17.5616 17.5633 17.0478C18.0731 16.5341 18.3945 16.0203 18.6272 15.4141C18.8562 14.8265 19.0113 14.1538 19.0557 13.1706C19.1 12.1837 19.1111 11.8696 19.1111 9.36357C19.1111 6.85759 19.1037 6.53972 19.0594 5.55655ZM17.4008 13.0967C17.3602 13.9985 17.2087 14.4901 17.0831 14.8117C16.9169 15.2404 16.7137 15.5509 16.3887 15.8762C16.0636 16.2014 15.757 16.3973 15.3248 16.571C14.9997 16.6967 14.5085 16.8483 13.6108 16.8889C12.6393 16.9333 12.3475 16.9444 9.87997 16.9444C7.41243 16.9444 7.12061 16.9333 6.14911 16.8889C5.24779 16.8483 4.7565 16.6967 4.43513 16.571C4.00664 16.4047 3.69635 16.2014 3.37128 15.8762C3.04622 15.5509 2.85044 15.2441 2.67682 14.8117C2.55123 14.4864 2.39978 13.9948 2.35915 13.0967C2.31482 12.1246 2.30374 11.8326 2.30374 9.36357C2.30374 6.89455 2.31482 6.60255 2.35915 5.63047C2.39978 4.72861 2.55123 4.23703 2.67682 3.91546C2.84305 3.48671 3.04622 3.17623 3.37128 2.85097C3.69635 2.52571 4.00294 2.32982 4.43513 2.1561C4.7602 2.03043 5.25149 1.87889 6.14911 1.83823C7.12061 1.79388 7.41243 1.78279 9.87997 1.78279C12.3475 1.78279 12.6393 1.79388 13.6108 1.83823C14.5121 1.87889 15.0034 2.03043 15.3248 2.1561C15.7533 2.32243 16.0636 2.52571 16.3887 2.85097C16.7137 3.17623 16.9095 3.48301 17.0831 3.91546C17.2087 4.24072 17.3602 4.73231 17.4008 5.63047C17.4451 6.60255 17.4562 6.89455 17.4562 9.36357C17.4562 11.8326 17.4414 12.1246 17.4008 13.0967Z" fill="#0C0C0C"/>
<path d="M9.87971 4.6178C7.25703 4.6178 5.13672 6.74308 5.13672 9.36364C5.13672 11.9879 7.26072 14.1095 9.87971 14.1095C12.4987 14.1095 14.6227 11.9805 14.6227 9.36364C14.6227 6.73938 12.5024 4.6178 9.87971 4.6178ZM9.87971 12.4425C8.18051 12.4425 6.80268 11.0639 6.80268 9.36364C6.80268 7.66342 8.18051 6.28476 9.87971 6.28476C11.5789 6.28476 12.9567 7.66342 12.9567 9.36364C12.9567 11.0639 11.5789 12.4425 9.87971 12.4425Z" fill="#0C0C0C"/>
<path d="M14.8074 5.54178C15.4194 5.54178 15.9156 5.04533 15.9156 4.43294C15.9156 3.82054 15.4194 3.3241 14.8074 3.3241C14.1954 3.3241 13.6992 3.82054 13.6992 4.43294C13.6992 5.04533 14.1954 5.54178 14.8074 5.54178Z" fill="#0C0C0C"/>
<path d="M0.646484 9.36357C0.646484 11.8732 0.657566 12.1874 0.701893 13.1706C0.74622 14.1538 0.905059 14.8265 1.13039 15.4141C1.3668 16.0203 1.68078 16.5378 2.19424 17.0478C2.704 17.5579 3.22115 17.8795 3.82695 18.1123C4.41428 18.3415 5.08658 18.4967 6.06916 18.5411C7.05544 18.5854 7.36942 18.5965 9.8739 18.5965C12.3821 18.5965 12.6961 18.5854 13.6786 18.5411C14.6612 18.4967 15.3335 18.3378 15.9208 18.1123C16.5266 17.8758 17.0438 17.5616 17.5536 17.0478C18.0633 16.5378 18.3847 16.0203 18.6174 15.4141C18.8464 14.8265 19.0016 14.1538 19.0459 13.1706C19.0902 12.1837 19.1013 11.8696 19.1013 9.36357C19.1013 6.85389 19.0902 6.53972 19.0459 5.55655C19.0016 4.57337 18.8427 3.90068 18.6174 3.31299C18.381 2.70682 18.067 2.18936 17.5536 1.6793C17.0475 1.16553 16.5303 0.847666 15.9245 0.614809C15.3372 0.385649 14.6649 0.230411 13.6823 0.186057C12.6961 0.141704 12.3821 0.130615 9.87759 0.130615C7.36942 0.130615 7.05544 0.141704 6.07285 0.186057C5.09027 0.230411 4.41798 0.389345 3.83064 0.614809C3.22484 0.851362 2.70769 1.16553 2.19793 1.6793C1.68817 2.19306 1.3668 2.70682 1.13408 3.31299C0.905059 3.90068 0.74622 4.57337 0.701893 5.55655C0.657566 6.53972 0.646484 6.85389 0.646484 9.36357ZM2.31244 9.36357C2.31244 6.89825 2.32352 6.60255 2.36785 5.63047C2.40848 4.72861 2.55994 4.23703 2.68553 3.91546C2.85176 3.48671 3.05492 3.17623 3.37999 2.85097C3.70505 2.52571 4.01165 2.32982 4.44384 2.1561C4.7689 2.03043 5.26019 1.87889 6.15781 1.83823C7.12932 1.79388 7.42113 1.78279 9.88867 1.78279C12.3562 1.78279 12.648 1.79388 13.6195 1.83823C14.5209 1.87889 15.0121 2.03043 15.3335 2.1561C15.762 2.32243 16.0723 2.52571 16.3974 2.85097C16.7224 3.17623 16.9182 3.48301 17.0918 3.91546C17.2174 4.24072 17.3689 4.73231 17.4095 5.63047C17.4538 6.60255 17.4649 6.89455 17.4649 9.36357C17.4649 11.8326 17.4538 12.1246 17.4095 13.0967C17.3689 13.9985 17.2174 14.4901 17.0918 14.8117C16.9256 15.2404 16.7224 15.5509 16.3974 15.8762C16.0723 16.2014 15.7657 16.3973 15.3335 16.571C15.0084 16.6967 14.5172 16.8483 13.6195 16.8889C12.648 16.9333 12.3562 16.9444 9.88867 16.9444C7.42113 16.9444 7.12932 16.9333 6.15781 16.8889C5.2565 16.8483 4.76521 16.6967 4.44384 16.571C4.01534 16.4047 3.70505 16.2014 3.37999 15.8762C3.05492 15.5509 2.85914 15.2441 2.68553 14.8117C2.55994 14.4864 2.40848 13.9948 2.36785 13.0967C2.31983 12.1246 2.31244 11.8289 2.31244 9.36357Z" fill="#0C0C0C"/>
</svg>
