<svg width="48" height="48" viewBox="0 0 48 48" xmlns="http://www.w3.org/2000/svg">
<path d="M19.584 27.2226C19.4308 27.4524 19.4929 27.7628 19.7226 27.916C19.9524 28.0692 20.2628 28.0071 20.416 27.7774L19.584 27.2226ZM22 24.5V24H21.7324L21.584 24.2226L22 24.5ZM26.5 25C26.7761 25 27 24.7761 27 24.5C27 24.2239 26.7761 24 26.5 24V25ZM32.5 14L32.9682 13.8244L32.8797 13.5885L32.6374 13.5192L32.5 14ZM29.1374 12.5192C28.8718 12.4434 28.5951 12.5971 28.5192 12.8626C28.4434 13.1282 28.5971 13.4049 28.8626 13.4808L29.1374 12.5192ZM33.5 16.5C33.2239 16.5 33 16.7239 33 17C33 17.2761 33.2239 17.5 33.5 17.5V16.5ZM36 17L36.3536 16.6464L36.2071 16.5H36V17ZM38.5 19.5L38.9472 19.7236L39.1084 19.4013L38.8536 19.1464L38.5 19.5ZM37.5 21.5V22H37.809L37.9472 21.7236L37.5 21.5ZM29.5 33.5L29.7236 33.9472L30.0264 33.7958L29.9983 33.4585L29.5 33.5ZM28.5 34V34.5H28.618L28.7236 34.4472L28.5 34ZM19 34L18.5528 34.2236L18.691 34.5H19V34ZM17.5 31L17.9472 30.7764L17.809 30.5H17.5V31ZM16.5 28.5L16.084 28.2226L15.8216 28.6162L16.2 28.9L16.5 28.5ZM18.5 30L18.2 30.4L18.3333 30.5H18.5V30ZM22.5 30.5C22.7761 30.5 23 30.2761 23 30C23 29.7239 22.7761 29.5 22.5 29.5V30.5ZM18.5 25.5L18.916 25.7774L19.173 25.3918L18.8082 25.1062L18.5 25.5ZM7 16.5L6.50503 16.5707L6.53347 16.7698L6.69185 16.8938L7 16.5ZM6.5 13L6.70307 12.5431L5.87722 12.176L6.00503 13.0707L6.5 13ZM11 15L11.3536 14.6464L11.2879 14.5808L11.2031 14.5431L11 15ZM13.5 17.5L13.1464 17.8536L13.1867 17.8938L13.235 17.924L13.5 17.5ZM30.697 20.9596C30.9508 20.8508 31.0684 20.5569 30.9596 20.303C30.8508 20.0492 30.5569 19.9316 30.303 20.0404L30.697 20.9596ZM24 15.5L23.8787 15.0149L23.8787 15.0149L24 15.5ZM32 18L31.693 18.3947L31.9418 18.5881L32.2236 18.4472L32 18ZM13 29C13.2761 29 13.5 28.7761 13.5 28.5C13.5 28.2239 13.2761 28 13 28V29ZM34.2236 17.4472C34.4706 17.3237 34.5707 17.0234 34.4472 16.7764C34.3237 16.5294 34.0234 16.4293 33.7764 16.5528L34.2236 17.4472ZM9.61506 25.7586L9.3051 26.1509L9.3051 26.1509L9.61506 25.7586ZM9.45031 24.354L9.05798 24.044L9.05798 24.044L9.45031 24.354ZM15.7277 29.3133L15.3353 29.0034L15.3353 29.0034L15.7277 29.3133ZM14.3231 29.4781L14.633 29.0858L14.633 29.0858L14.3231 29.4781ZM16.8027 26.3394L17.1127 25.9471L16.8027 26.3394ZM16.9675 27.744L17.3598 28.054L17.3598 28.054L16.9675 27.744ZM12.0947 22.6199L11.7848 23.0123L12.0947 22.6199ZM10.6901 22.7847L11.0825 23.0946L11.0825 23.0946L10.6901 22.7847ZM20.416 27.7774L22.416 24.7774L21.584 24.2226L19.584 27.2226L20.416 27.7774ZM22 25H26.5V24H22V25ZM43.5 30C43.5 33.0376 41.0376 35.5 38 35.5V36.5C41.5899 36.5 44.5 33.5899 44.5 30H43.5ZM38 35.5C34.9624 35.5 32.5 33.0376 32.5 30H31.5C31.5 33.5899 34.4101 36.5 38 36.5V35.5ZM32.5 30C32.5 26.9624 34.9624 24.5 38 24.5V23.5C34.4101 23.5 31.5 26.4101 31.5 30H32.5ZM38 24.5C41.0376 24.5 43.5 26.9624 43.5 30H44.5C44.5 26.4101 41.5899 23.5 38 23.5V24.5ZM9 35.5C5.96243 35.5 3.5 33.0376 3.5 30H2.5C2.5 33.5899 5.41015 36.5 9 36.5V35.5ZM3.5 30C3.5 26.9624 5.96243 24.5 9 24.5V23.5C5.41015 23.5 2.5 26.4101 2.5 30H3.5ZM14.4239 30.9173C13.9876 33.5181 11.7247 35.5 9 35.5V36.5C12.2212 36.5 14.8943 34.1573 15.4102 31.0827L14.4239 30.9173ZM9 24.5C9.20131 24.5 9.39992 24.5108 9.59532 24.5318L9.70222 23.5375C9.47139 23.5127 9.23709 23.5 9 23.5V24.5ZM40.5 30C40.5 31.3807 39.3807 32.5 38 32.5V33.5C39.933 33.5 41.5 31.933 41.5 30H40.5ZM38 32.5C36.6193 32.5 35.5 31.3807 35.5 30H34.5C34.5 31.933 36.067 33.5 38 33.5V32.5ZM35.5 30C35.5 28.6193 36.6193 27.5 38 27.5V26.5C36.067 26.5 34.5 28.067 34.5 30H35.5ZM38 27.5C39.3807 27.5 40.5 28.6193 40.5 30H41.5C41.5 28.067 39.933 26.5 38 26.5V27.5ZM9 32.5C7.61929 32.5 6.5 31.3807 6.5 30H5.5C5.5 31.933 7.067 33.5 9 33.5V32.5ZM6.5 30C6.5 28.6193 7.61929 27.5 9 27.5V26.5C7.067 26.5 5.5 28.067 5.5 30H6.5ZM9 27.5C9.96514 27.5 10.8034 28.0468 11.2204 28.8498L12.1079 28.389C11.5257 27.2677 10.3529 26.5 9 26.5V27.5ZM11.3579 30.8334C11.0144 31.805 10.0877 32.5 9 32.5V33.5C10.5247 33.5 11.8205 32.5253 12.3007 31.1666L11.3579 30.8334ZM38.9682 29.8244L32.9682 13.8244L32.0318 14.1756L38.0318 30.1756L38.9682 29.8244ZM32.6374 13.5192L29.1374 12.5192L28.8626 13.4808L32.3626 14.4808L32.6374 13.5192ZM33.5 17.5H36V16.5H33.5V17.5ZM35.6465 17.3536L38.1465 19.8536L38.8536 19.1464L36.3536 16.6464L35.6465 17.3536ZM38.0528 19.2764L37.0528 21.2764L37.9472 21.7236L38.9472 19.7236L38.0528 19.2764ZM37.5 21C35.8851 21 33.5471 21.6412 31.714 23.554C29.8679 25.4805 28.5928 28.6337 29.0017 33.5415L29.9983 33.4585C29.6073 28.7663 30.8322 25.9195 32.436 24.246C34.0529 22.5588 36.115 22 37.5 22V21ZM29.2764 33.0528L28.2764 33.5528L28.7236 34.4472L29.7236 33.9472L29.2764 33.0528ZM28.5 33.5H19V34.5H28.5V33.5ZM19.4472 33.7764L17.9472 30.7764L17.0528 31.2236L18.5528 34.2236L19.4472 33.7764ZM17.5 30.5H10V31.5H17.5V30.5ZM9.5 30V29.5H8.5V30H9.5ZM16.2 28.9L18.2 30.4L18.8 29.6L16.8 28.1L16.2 28.9ZM18.5 30.5H22.5V29.5H18.5V30.5ZM16.916 28.7774L18.916 25.7774L18.084 25.2226L16.084 28.2226L16.916 28.7774ZM18.8082 25.1062L7.30815 16.1062L6.69185 16.8938L18.1918 25.8938L18.8082 25.1062ZM7.49497 16.4293L6.99497 12.9293L6.00503 13.0707L6.50503 16.5707L7.49497 16.4293ZM6.29693 13.4569L10.7969 15.4569L11.2031 14.5431L6.70307 12.5431L6.29693 13.4569ZM10.6464 15.3536L13.1464 17.8536L13.8536 17.1464L11.3536 14.6464L10.6464 15.3536ZM13.235 17.924C13.9303 18.3586 15.1139 18.9756 16.4359 19.4348C17.7465 19.8901 19.2586 20.2138 20.5822 19.9932L20.4178 19.0068C19.3414 19.1862 18.0201 18.9265 16.7641 18.4902C15.5194 18.0578 14.403 17.4748 13.765 17.076L13.235 17.924ZM20.1 19.8C21.2564 21.3418 24.9139 23.438 30.697 20.9596L30.303 20.0404C24.8861 22.362 21.7436 20.3248 20.9 19.2L20.1 19.8ZM20.9596 19.697C21.1964 19.1444 21.6519 18.2814 22.2353 17.5155C22.8339 16.7295 23.4954 16.1415 24.1213 15.9851L23.8787 15.0149C22.9046 15.2585 22.0661 16.0872 21.4397 16.9095C20.7981 17.7519 20.3036 18.689 20.0404 19.303L20.9596 19.697ZM24.1213 15.9851C25.2935 15.692 28.2042 15.6811 31.693 18.3947L32.307 17.6053C28.5958 14.7189 25.3731 14.6413 23.8787 15.0149L24.1213 15.9851ZM10 29H13V28H10V29ZM9.5 29.5C9.5 29.2239 9.72386 29 10 29V28C9.17157 28 8.5 28.6716 8.5 29.5H9.5ZM10 30.5C9.72386 30.5 9.5 30.2761 9.5 30H8.5C8.5 30.8284 9.17157 31.5 10 31.5V30.5ZM32.2236 18.4472L34.2236 17.4472L33.7764 16.5528L31.7764 17.5528L32.2236 18.4472ZM26.5 30C26.5 30.8284 25.8284 31.5 25 31.5V32.5C26.3807 32.5 27.5 31.3807 27.5 30H26.5ZM25 31.5C24.1716 31.5 23.5 30.8284 23.5 30H22.5C22.5 31.3807 23.6193 32.5 25 32.5V31.5ZM23.5 30C23.5 29.1716 24.1716 28.5 25 28.5V27.5C23.6193 27.5 22.5 28.6193 22.5 30H23.5ZM25 28.5C25.8284 28.5 26.5 29.1716 26.5 30H27.5C27.5 28.6193 26.3807 27.5 25 27.5V28.5ZM11.7848 23.0123L16.4928 26.7317L17.1127 25.9471L12.4047 22.2276L11.7848 23.0123ZM16.5752 27.434L15.3353 29.0034L16.12 29.6233L17.3598 28.054L16.5752 27.434ZM14.633 29.0858L9.92502 25.3663L9.3051 26.1509L14.0131 29.8704L14.633 29.0858ZM9.84264 24.664L11.0825 23.0946L10.2978 22.4747L9.05798 24.044L9.84264 24.664ZM9.92502 25.3663C9.70834 25.1951 9.67146 24.8806 9.84264 24.664L9.05798 24.044C8.54442 24.6941 8.65506 25.6374 9.3051 26.1509L9.92502 25.3663ZM15.3353 29.0034C15.1641 29.2201 14.8497 29.2569 14.633 29.0858L14.0131 29.8704C14.6632 30.384 15.6064 30.2733 16.12 29.6233L15.3353 29.0034ZM16.4928 26.7317C16.7095 26.9029 16.7463 27.2174 16.5752 27.434L17.3598 28.054C17.8734 27.4039 17.7627 26.4606 17.1127 25.9471L16.4928 26.7317ZM12.4047 22.2276C11.7546 21.714 10.8114 21.8247 10.2978 22.4747L11.0825 23.0946C11.2537 22.8779 11.5681 22.8411 11.7848 23.0123L12.4047 22.2276Z"/>
</svg>
