<svg width="33" height="32" viewBox="0 0 33 32" fill="none" xmlns="http://www.w3.org/2000/svg">
<path d="M16.4603 2.66663C9.10029 2.66663 3.12695 8.63996 3.12695 16C3.12695 23.36 9.10029 29.3333 16.4603 29.3333C23.8203 29.3333 29.7936 23.36 29.7936 16C29.7936 8.63996 23.8336 2.66663 16.4603 2.66663ZM20.4603 18.9733L16.5936 21.2C16.1136 21.48 15.5803 21.6133 15.0603 21.6133C14.527 21.6133 14.007 21.48 13.527 21.2C12.567 20.64 11.9936 19.6533 11.9936 18.5333V14.0666C11.9936 12.96 12.567 11.96 13.527 11.4C14.487 10.84 15.6336 10.84 16.607 11.4L20.4736 13.6266C21.4336 14.1866 22.007 15.1733 22.007 16.2933C22.007 17.4133 21.4336 18.4133 20.4603 18.9733Z" fill="white"/>
</svg>
