<svg width="48" height="48" viewBox="0 0 48 48" xmlns="http://www.w3.org/2000/svg">
<path d="M18.5 20V19.5H17.691L18.0528 20.2236L18.5 20ZM17 16L16.6465 15.6465L16.5 15.7929V16H17ZM17 19H16.5V19.1634L16.5965 19.2953L17 19ZM12 25.5L11.8052 25.0395L11.5 25.1686V25.5H12ZM25 20L25.1948 20.4605L25.5 20.3314V20H25ZM38.5273 27.663C38.6173 27.9241 38.9019 28.0627 39.163 27.9727C39.4241 27.8827 39.5627 27.5981 39.4727 27.337L38.5273 27.663ZM34 13L34.4727 12.837L34.3565 12.5H34V13ZM30.5 12.5C30.2239 12.5 30 12.7239 30 13C30 13.2761 30.2239 13.5 30.5 13.5V12.5ZM38.5 18.5V19H39V18.5H38.5ZM38.5 13.5H39V13H38.5V13.5ZM37 13.5V13H36.9384L36.8787 13.0149L37 13.5ZM35.5 17.5V17H35.1809L35.0465 17.2894L35.5 17.5ZM26 31L26.0822 30.5068L26.0414 30.5H26V31ZM9.5 31H9V31.5H9.5V31ZM9.5 28.5V28H9V28.5H9.5ZM25 29C25.2761 29 25.5 28.7761 25.5 28.5C25.5 28.2239 25.2761 28 25 28V29ZM25.5 22C25.5 21.7239 25.2761 21.5 25 21.5C24.7239 21.5 24.5 21.7239 24.5 22H25.5ZM24.5 23C24.5 23.2761 24.7239 23.5 25 23.5C25.2761 23.5 25.5 23.2761 25.5 23H24.5ZM27.5 22C27.5 21.7239 27.2761 21.5 27 21.5C26.7239 21.5 26.5 21.7239 26.5 22H27.5ZM26.5 23C26.5 23.2761 26.7239 23.5 27 23.5C27.2761 23.5 27.5 23.2761 27.5 23H26.5ZM29.5 22C29.5 21.7239 29.2761 21.5 29 21.5C28.7239 21.5 28.5 21.7239 28.5 22H29.5ZM28.5 23C28.5 23.2761 28.7239 23.5 29 23.5C29.2761 23.5 29.5 23.2761 29.5 23H28.5ZM9 20V18H8V20H9ZM9.5 17.5H14V16.5H9.5V17.5ZM14.5 18V20H15.5V18H14.5ZM14 17.5C14.2761 17.5 14.5 17.7239 14.5 18H15.5C15.5 17.1716 14.8284 16.5 14 16.5V17.5ZM9 18C9 17.7239 9.22386 17.5 9.5 17.5V16.5C8.67157 16.5 8 17.1716 8 18H9ZM34.5 19.5H18.5V20.5H34.5V19.5ZM18.0528 20.2236L19.0528 22.2236L19.9472 21.7764L18.9472 19.7764L18.0528 20.2236ZM24.8536 19.1465C24.5755 18.8684 24.0915 18.4661 23.5138 18.1303C22.9432 17.7985 22.2276 17.5 21.5 17.5V18.5C21.9725 18.5 22.5068 18.7015 23.0112 18.9948C23.5085 19.2839 23.9246 19.6317 24.1465 19.8536L24.8536 19.1465ZM21.5 17.5C21.2457 17.5 20.8947 17.3883 20.458 17.17C20.0323 16.9572 19.5849 16.6745 19.1454 16.3919C18.7204 16.1187 18.2854 15.8337 17.9268 15.6544C17.7491 15.5655 17.5523 15.4827 17.3602 15.4496C17.1723 15.4173 16.8766 15.4164 16.6465 15.6465L17.3536 16.3536C17.2485 16.4587 17.1402 16.4265 17.1906 16.4352C17.2368 16.4431 17.3291 16.4736 17.4795 16.5488C17.7772 16.6976 18.1547 16.9438 18.6046 17.2331C19.0401 17.513 19.5302 17.8241 20.0108 18.0644C20.4804 18.2992 21.0044 18.5 21.5 18.5V17.5ZM16.5 16V19H17.5V16H16.5ZM16.5965 19.2953C16.8156 19.5947 17.125 19.8074 17.4266 19.9602C17.732 20.115 18.0613 20.2244 18.3557 20.3018C18.6519 20.3797 18.9251 20.4284 19.1236 20.4577C19.2233 20.4724 19.3053 20.4824 19.3633 20.4888C19.3923 20.492 19.4153 20.4943 19.4317 20.4959C19.4398 20.4966 19.4463 20.4972 19.4511 20.4976C19.4534 20.4978 19.4553 20.498 19.4568 20.4981C19.4575 20.4982 19.4582 20.4982 19.4587 20.4983C19.4589 20.4983 19.4591 20.4983 19.4593 20.4983C19.4594 20.4984 19.4596 20.4984 19.4596 20.4984C19.4597 20.4984 19.4598 20.4984 19.5 20C19.5401 19.5016 19.5402 19.5016 19.5403 19.5016C19.5404 19.5016 19.5404 19.5016 19.5405 19.5016C19.5406 19.5016 19.5406 19.5017 19.5406 19.5017C19.5407 19.5017 19.5406 19.5017 19.5404 19.5016C19.5401 19.5016 19.5393 19.5015 19.5381 19.5014C19.5357 19.5012 19.5316 19.5009 19.5258 19.5003C19.5143 19.4992 19.4964 19.4974 19.4728 19.4948C19.4256 19.4896 19.3559 19.4812 19.2698 19.4685C19.0966 19.4429 18.8612 19.4007 18.61 19.3347C18.357 19.2681 18.1002 19.1805 17.8786 19.0683C17.6533 18.9541 17.4949 18.8296 17.4035 18.7047L16.5965 19.2953ZM12.5 28.5V25.5H11.5V28.5H12.5ZM12.1948 25.9605L25.1948 20.4605L24.8052 19.5395L11.8052 25.0395L12.1948 25.9605ZM25.5 20C25.5 19.3606 25.8923 18.2837 27.2709 17.3953C28.6527 16.5047 31.0367 15.8025 34.975 15.9994L35.025 15.0006C30.9633 14.7976 28.3473 15.512 26.7291 16.5547C25.1077 17.5997 24.5 18.9728 24.5 20H25.5ZM44.5 28C44.5 31.0376 42.0376 33.5 39 33.5V34.5C42.5899 34.5 45.5 31.5899 45.5 28H44.5ZM39 33.5C35.9624 33.5 33.5 31.0376 33.5 28H32.5C32.5 31.5899 35.4101 34.5 39 34.5V33.5ZM33.5 28C33.5 24.9624 35.9624 22.5 39 22.5V21.5C35.4101 21.5 32.5 24.4101 32.5 28H33.5ZM39 22.5C42.0376 22.5 44.5 24.9624 44.5 28H45.5C45.5 24.4101 42.5899 21.5 39 21.5V22.5ZM17.5 28C17.5 31.0376 15.0376 33.5 12 33.5V34.5C15.5899 34.5 18.5 31.5899 18.5 28H17.5ZM12 33.5C8.96243 33.5 6.5 31.0376 6.5 28H5.5C5.5 31.5899 8.41015 34.5 12 34.5V33.5ZM6.5 28C6.5 24.9624 8.96243 22.5 12 22.5V21.5C8.41015 21.5 5.5 24.4101 5.5 28H6.5ZM12 22.5C15.0376 22.5 17.5 24.9624 17.5 28H18.5C18.5 24.4101 15.5899 21.5 12 21.5V22.5ZM42.5 28C42.5 29.933 40.933 31.5 39 31.5V32.5C41.4853 32.5 43.5 30.4853 43.5 28H42.5ZM39 31.5C37.067 31.5 35.5 29.933 35.5 28H34.5C34.5 30.4853 36.5147 32.5 39 32.5V31.5ZM35.5 28C35.5 26.067 37.067 24.5 39 24.5V23.5C36.5147 23.5 34.5 25.5147 34.5 28H35.5ZM39 24.5C40.933 24.5 42.5 26.067 42.5 28H43.5C43.5 25.5147 41.4853 23.5 39 23.5V24.5ZM8.5 28C8.5 26.067 10.067 24.5 12 24.5V23.5C9.51472 23.5 7.5 25.5147 7.5 28H8.5ZM12 24.5C13.933 24.5 15.5 26.067 15.5 28H16.5C16.5 25.5147 14.4853 23.5 12 23.5V24.5ZM9.68504 30.6251C8.9576 29.9831 8.5 29.0453 8.5 28H7.5C7.5 29.3441 8.08991 30.551 9.02331 31.3749L9.68504 30.6251ZM3.5 22.5H6V21.5H3.5V22.5ZM39.4727 27.337L36.0257 17.3406L35.0803 17.6666L38.5273 27.663L39.4727 27.337ZM36.0257 17.3407L35.3793 15.4662L34.4339 15.7922L35.0803 17.6666L36.0257 17.3407ZM35.3793 15.4662L34.4727 12.837L33.5273 13.163L34.4339 15.7922L35.3793 15.4662ZM34 12.5H30.5V13.5H34V12.5ZM39 18.5V13.5H38V18.5H39ZM38.5 13H37V14H38.5V13ZM38.5 18C37.6264 18 37.0934 17.792 36.7267 17.589C36.53 17.4801 36.3867 17.3771 36.2191 17.268C36.0789 17.1767 35.8671 17.0417 35.6202 17.0082L35.4858 17.9991C35.4809 17.9984 35.5174 18.0044 35.6736 18.1061C35.8025 18.19 36.004 18.3319 36.2423 18.4639C36.7457 18.7426 37.4442 19 38.5 19V18ZM35.6202 17.0082C35.5814 17.0029 35.5413 17 35.5 17V18C35.494 18 35.4892 17.9996 35.4858 17.9991L35.6202 17.0082ZM36.8787 13.0149C35.8269 13.2779 35.3396 14.0897 35.0686 14.6543C35.0011 14.795 34.9414 14.9326 34.8946 15.0372C34.8434 15.1514 34.8097 15.221 34.7832 15.2646C34.7455 15.3264 34.7713 15.2529 34.881 15.2079C35.06 15.1344 35.1991 15.2226 35.2223 15.2415L34.5909 16.0169C34.7379 16.1366 34.9836 16.2468 35.2609 16.1329C35.4689 16.0475 35.5845 15.8713 35.6373 15.7847C35.7011 15.6798 35.7583 15.5552 35.8072 15.446C35.8605 15.327 35.9102 15.2119 35.9701 15.087C36.209 14.5895 36.5208 14.1352 37.1213 13.9851L36.8787 13.0149ZM35.2223 15.2415C35.2302 15.2479 35.2056 15.2286 35.149 15.1413C35.0962 15.0598 35.03 14.9419 34.9472 14.7764L34.0528 15.2236C34.1439 15.4059 34.2289 15.5601 34.3098 15.6851C34.3871 15.8043 34.4788 15.9257 34.5909 16.0169L35.2223 15.2415ZM35.0465 17.2894C33.9686 19.611 32.2039 23.065 30.4154 25.882C29.5195 27.2931 28.6301 28.5243 27.8288 29.3722C27.4274 29.7969 27.0645 30.1077 26.7494 30.2985C26.4281 30.493 26.2136 30.5287 26.0822 30.5068L25.9178 31.4932C26.3864 31.5713 26.8511 31.4059 27.2674 31.1539C27.6899 30.898 28.1231 30.5166 28.5556 30.0591C29.422 29.1423 30.3514 27.8485 31.2596 26.418C33.0794 23.5517 34.8647 20.0557 35.9535 17.7106L35.0465 17.2894ZM26 30.5H9.5V31.5H26V30.5ZM9 28.5V31H10V28.5H9ZM9.5 29H25V28H9.5V29ZM4.5 28C4.5 25.615 5.22586 23.6186 6.50458 22.2239C7.77871 20.8343 9.6396 20 12 20V19C9.38984 19 7.25072 19.9304 5.7675 21.5481C4.28886 23.1608 3.5 25.4144 3.5 28H4.5ZM12 20C14.5934 20 16.5595 20.9922 18.1193 22.8241L18.8807 22.1759C17.1389 20.1301 14.8986 19 12 19V20ZM24.5 22V23H25.5V22H24.5ZM26.5 22V23H27.5V22H26.5ZM28.5 22V23H29.5V22H28.5ZM21.5 25.5H25.5V24.5H21.5V25.5ZM25.5 27.5H21.5V28.5H25.5V27.5ZM21.5 27.5C20.9477 27.5 20.5 27.0523 20.5 26.5H19.5C19.5 27.6046 20.3954 28.5 21.5 28.5V27.5ZM26.5 26.5C26.5 27.0523 26.0523 27.5 25.5 27.5V28.5C26.6046 28.5 27.5 27.6046 27.5 26.5H26.5ZM25.5 25.5C26.0523 25.5 26.5 25.9477 26.5 26.5H27.5C27.5 25.3954 26.6046 24.5 25.5 24.5V25.5ZM21.5 24.5C20.3954 24.5 19.5 25.3954 19.5 26.5H20.5C20.5 25.9477 20.9477 25.5 21.5 25.5V24.5Z"/>
</svg>
