<svg width="48" height="48" viewBox="0 0 48 48" xmlns="http://www.w3.org/2000/svg">
<path d="M30.9117 13.8027L31.3861 13.6446L31.3861 13.6446L30.9117 13.8027ZM33.3784 21.2027L32.9039 21.3609L32.9085 21.3736L33.3784 21.2027ZM30.085 30.1067L30.3314 30.5418L30.3314 30.5418L30.085 30.1067ZM22.9742 30.0906L22.6607 30.4801L22.6607 30.4801L22.9742 30.0906ZM21.3861 26.0115L20.9389 25.7879L20.9389 25.7879L21.3861 26.0115ZM23.5 21.7838L23.9472 22.0074L24.0266 21.8486L23.9881 21.6753L23.5 21.7838ZM20.0135 17.7162L20.1348 17.2311L20.0904 17.22L20.0447 17.2172L20.0135 17.7162ZM10.7162 17.1351L10.7474 16.6361L10.7318 16.6351H10.7162V17.1351ZM2 31.6622L1.50086 31.6328L1.46972 32.1622H2V31.6622ZM17.6559 32.1004L17.3436 32.4909L17.3436 32.4909L17.6559 32.1004ZM18.9179 33.11L19.2302 32.7195L19.2302 32.7195L18.9179 33.11ZM30.6471 33.6007L30.3996 33.1663L30.3996 33.1663L30.6471 33.6007ZM36.8649 20.6216L37.3615 20.5641L37.3592 20.5437L37.3552 20.5236L36.8649 20.6216ZM36.2838 14.2297V14.7297H36.7838V14.2297H36.2838ZM36.2838 9H36.7838V8.5H36.2838V9ZM33.9595 9V8.5H33.8414L33.7359 8.55279L33.9595 9ZM30.473 10.1622L30.873 9.86216L30.723 9.66216H30.473V10.1622ZM26.9865 9.66216C26.7103 9.66216 26.4865 9.88602 26.4865 10.1622C26.4865 10.4383 26.7103 10.6622 26.9865 10.6622V9.66216ZM39.5307 23.2614L39.5822 22.764L39.5565 22.7614H39.5307V23.2614ZM45 26.4324V26.9324H46.2071L45.3536 26.0789L45 26.4324ZM38.721 31.2566C38.818 31.5152 39.1062 31.6462 39.3648 31.5492C39.6233 31.4523 39.7543 31.1641 39.6574 30.9055L38.721 31.2566ZM8.39189 25.9324C8.11575 25.9324 7.89189 26.1563 7.89189 26.4324C7.89189 26.7086 8.11575 26.9324 8.39189 26.9324V25.9324ZM16.527 26.9324C16.8032 26.9324 17.027 26.7086 17.027 26.4324C17.027 26.1563 16.8032 25.9324 16.527 25.9324V26.9324ZM30.4374 13.9608L32.904 21.3608L33.8527 21.0446L31.3861 13.6446L30.4374 13.9608ZM32.9085 21.3736C33.2475 22.3059 33.4871 23.8238 33.1348 25.3858C32.7868 26.9288 31.8602 28.5265 29.8385 29.6717L30.3314 30.5418C32.6186 29.2463 33.7055 27.4004 34.1103 25.6058C34.5108 23.8301 34.2426 22.1163 33.8483 21.0318L32.9085 21.3736ZM28.4444 30H24.1667V31H28.4444V30ZM23.2877 29.7011C22.8963 29.3861 22.4627 29.0139 22.131 28.6806C21.9642 28.5129 21.8344 28.3662 21.7498 28.2494C21.7075 28.191 21.6841 28.1503 21.6729 28.1264C21.659 28.097 21.6757 28.1187 21.6757 28.1757H20.6757C20.6757 28.3262 20.7237 28.4578 20.7678 28.5517C20.8145 28.6512 20.8757 28.7472 20.9398 28.8359C21.0682 29.0131 21.2389 29.2017 21.4222 29.3859C21.7909 29.7565 22.2565 30.1548 22.6607 30.4801L23.2877 29.7011ZM21.6757 28.1757V26.9045H20.6757V28.1757H21.6757ZM21.8333 26.2352L23.9472 22.0074L23.0528 21.5602L20.9389 25.7879L21.8333 26.2352ZM23.9881 21.6753C23.7881 20.7755 23.4785 19.826 22.8863 19.0185C22.2846 18.198 21.4101 17.55 20.1348 17.2311L19.8922 18.2013C20.9413 18.4635 21.6163 18.9777 22.0799 19.6099C22.553 20.2551 22.8245 21.0488 23.0119 21.8922L23.9881 21.6753ZM20.0447 17.2172L10.7474 16.6361L10.685 17.6342L19.9823 18.2152L20.0447 17.2172ZM10.7162 16.6351C10.3457 16.6351 9.80097 16.7422 9.33454 17.078C8.84261 17.4322 8.47297 18.0181 8.47297 18.8784H9.47297C9.47297 18.344 9.68441 18.0583 9.91884 17.8896C10.1788 17.7024 10.5057 17.6351 10.7162 17.6351V16.6351ZM8.47297 18.8784V21.7838H9.47297V18.8784H8.47297ZM8.97297 21.2838C7.76921 21.2838 6.01236 21.8349 4.50068 23.4137C2.98247 24.9992 1.73864 27.5906 1.50086 31.6328L2.49914 31.6915C2.72622 27.8311 3.90357 25.4832 5.22297 24.1053C6.5489 22.7205 8.0461 22.2838 8.97297 22.2838V21.2838ZM2 32.1622H16.4065V31.1622H2V32.1622ZM17.3436 32.4909L18.6055 33.5004L19.2302 32.7195L17.9683 31.71L17.3436 32.4909ZM21.4166 34.4865H29.043V33.4865H21.4166V34.4865ZM30.8946 34.0352C32.8456 32.9238 35.9173 30.3866 36.7719 26.5409L35.7957 26.324C35.0285 29.7765 32.2346 32.121 30.3996 33.1663L30.8946 34.0352ZM37.3552 20.5236C37.0503 18.9993 36.4909 17.834 35.9209 16.8179C35.3388 15.7802 34.7949 14.9721 34.4237 14.044L33.4952 14.4154C33.8988 15.4242 34.5171 16.3594 35.0487 17.3071C35.5925 18.2764 36.0984 19.3386 36.3746 20.7197L37.3552 20.5236ZM33.9595 14.7297H36.2838V13.7297H33.9595V14.7297ZM36.7838 14.2297V9H35.7838V14.2297H36.7838ZM36.2838 8.5H33.9595V9.5H36.2838V8.5ZM33.7359 8.55279C33.42 8.71072 33.039 9.09359 32.6865 9.68977C32.3244 10.3022 31.9676 11.1799 31.7259 12.3884L32.7065 12.5845C32.9297 11.4687 33.2509 10.7001 33.5473 10.1987C33.8533 9.68118 34.1116 9.48297 34.1831 9.44721L33.7359 8.55279ZM32.2162 11.9865H31.8604V12.9865H32.2162V11.9865ZM34.313 13.8762L32.5698 12.1329L31.8627 12.84L33.6059 14.5833L34.313 13.8762ZM32.6162 12.1865L30.873 9.86216L30.073 10.4622L31.8162 12.7865L32.6162 12.1865ZM30.473 9.66216H26.9865V10.6622H30.473V9.66216ZM36.7719 26.5409C36.9559 25.7129 37.2006 24.4694 37.36 23.3307L36.3697 23.1921C36.215 24.2972 35.9758 25.5135 35.7957 26.324L36.7719 26.5409ZM37.36 23.3307C37.4505 22.6847 37.4837 22.2519 37.4757 21.8412C37.4678 21.4375 37.4196 21.0649 37.3615 20.5641L36.3682 20.6792C36.4288 21.2024 36.4692 21.517 36.4759 21.8608C36.4825 22.1976 36.4564 22.5726 36.3697 23.1921L37.36 23.3307ZM36.8649 23.7614H39.5307V22.7614H36.8649V23.7614ZM39.4792 23.7587C40.203 23.8337 42.3907 24.5302 44.6464 26.786L45.3536 26.0789C42.9607 23.686 40.5676 22.8661 39.5822 22.764L39.4792 23.7587ZM23.5 21.2838H8.97297V22.2838H23.5V21.2838ZM45 25.9324H37.4459V26.9324H45V25.9324ZM37.4459 25.9324H36.2838V26.9324H37.4459V25.9324ZM36.9778 26.608L38.721 31.2566L39.6574 30.9055L37.9141 26.2569L36.9778 26.608ZM29.043 34.4865C29.6645 34.4865 30.3138 34.366 30.8946 34.0352L30.3996 33.1663C30.0078 33.3894 29.5409 33.4865 29.043 33.4865V34.4865ZM24.1667 30C23.8393 30 23.5295 29.8957 23.2877 29.7011L22.6607 30.4801C23.0932 30.8282 23.6285 31 24.1667 31V30ZM16.4065 32.1622C16.7472 32.1622 17.0776 32.2781 17.3436 32.4909L17.9683 31.71C17.525 31.3554 16.9742 31.1622 16.4065 31.1622V32.1622ZM18.6055 33.5004C19.4034 34.1387 20.3948 34.4865 21.4166 34.4865V33.4865C20.6219 33.4865 19.8508 33.216 19.2302 32.7195L18.6055 33.5004ZM29.8385 29.6717C29.4356 29.8999 28.9534 30 28.4444 30V31C29.0773 31 29.7407 30.8764 30.3314 30.5418L29.8385 29.6717ZM21.6757 26.9045C21.6757 26.6712 21.7294 26.4431 21.8333 26.2352L20.9389 25.7879C20.7652 26.1354 20.6757 26.5167 20.6757 26.9045H21.6757ZM31.3861 13.6446C31.2781 13.3208 31.5191 12.9865 31.8604 12.9865V11.9865C30.8366 11.9865 30.1136 12.9895 30.4374 13.9608L31.3861 13.6446ZM44.5 31.081C44.5 34.0141 42.1223 36.3919 39.1892 36.3919V37.3919C42.6746 37.3919 45.5 34.5664 45.5 31.081H44.5ZM39.1892 36.3919C36.2561 36.3919 33.8784 34.0142 33.8784 31.0811H32.8784C32.8784 34.5664 35.7038 37.3919 39.1892 37.3919V36.3919ZM42.6819 27.0802C43.7969 28.0545 44.5 29.4853 44.5 31.081H45.5C45.5 29.1847 44.6629 27.4833 43.3398 26.3272L42.6819 27.0802ZM15.4229 31.58C15.1717 34.2789 12.8999 36.3919 10.1351 36.3919V37.3919C13.4211 37.3919 16.12 34.8809 16.4185 31.6727L15.4229 31.58ZM10.1351 36.3919C7.37039 36.3919 5.09859 34.2789 4.84742 31.58L3.85172 31.6727C4.1503 34.8809 6.84919 37.3919 10.1351 37.3919V36.3919ZM41.0135 31.0811C41.0135 32.0886 40.1967 32.9054 39.1892 32.9054V33.9054C40.749 33.9054 42.0135 32.6409 42.0135 31.0811H41.0135ZM39.1892 32.9054C38.1816 32.9054 37.3649 32.0886 37.3649 31.0811H36.3649C36.3649 32.6409 37.6294 33.9054 39.1892 33.9054V32.9054ZM37.3649 31.0811C37.3649 30.0735 38.1816 29.2568 39.1892 29.2568V28.2568C37.6294 28.2568 36.3649 29.5212 36.3649 31.0811H37.3649ZM39.1892 29.2568C40.1967 29.2568 41.0135 30.0735 41.0135 31.0811H42.0135C42.0135 29.5212 40.749 28.2568 39.1892 28.2568V29.2568ZM10.1351 32.9054C9.29318 32.9054 8.58326 32.3346 8.37365 31.558L7.4082 31.8186C7.73259 33.0204 8.82987 33.9054 10.1351 33.9054V32.9054ZM11.8966 31.558C11.687 32.3346 10.9771 32.9054 10.1351 32.9054V33.9054C11.4404 33.9054 12.5377 33.0204 12.8621 31.8186L11.8966 31.558ZM8.39189 26.9324H16.527V25.9324H8.39189V26.9324Z" fill="black"/>
</svg>
