<svg width="48" height="48" viewBox="0 0 48 48" xmlns="http://www.w3.org/2000/svg">
<path d="M12.5987 29.5L13.0315 29.2496L13.0315 29.2496L12.5987 29.5ZM31 16L31.4663 15.8195L31.3634 15.5537L31.0822 15.5068L31 16ZM28.0822 15.0068C27.8098 14.9614 27.5522 15.1454 27.5068 15.4178C27.4614 15.6902 27.6454 15.9478 27.9178 15.9932L28.0822 15.0068ZM32 13.5L32.0822 13.0068L31.0142 12.8288L31.5713 13.7572L32 13.5ZM39 21L39.4288 21.2572L39.5217 21.1024L39.4942 20.924L39 21ZM37.5 23.5L37.5192 23.9996L37.7896 23.9892L37.9288 23.7572L37.5 23.5ZM30 35.5V36H30.7934L30.4511 35.2843L30 35.5ZM18.5 35.5L18.0528 35.7236L18.191 36H18.5V35.5ZM17 32.5L17.4472 32.2764L17.309 32H17V32.5ZM17.5 30V30.5H17.8385L17.9642 30.1857L17.5 30ZM18.5 27.5L18.9642 27.6857L19.1044 27.3352L18.8057 27.1044L18.5 27.5ZM7.49999 19L7.01189 19.1085L7.05113 19.285L7.19426 19.3956L7.49999 19ZM13 17L13.4743 16.8419L13.3897 16.588L13.1315 16.5176L13 17ZM14 20L13.5256 20.1581L13.6077 20.4043L13.8563 20.4789L14 20ZM22.5 17.5V17H22.4188L22.3419 17.0257L22.5 17.5ZM28 17.5L28.1581 17.0257L28.0811 17H28V17.5ZM33.5 19L33.6969 19.4596L34 19.3297V19H33.5ZM33.5 16H34V15.8615L33.9287 15.7428L33.5 16ZM25 23.5L25.4341 23.2519L25.3393 23.0861L25.1581 23.0257L25 23.5ZM27 27L27.4287 27.2572L27.5794 27.0062L27.4341 26.7519L27 27ZM23.416 25.7774C23.5692 25.5476 23.5071 25.2372 23.2774 25.084C23.0476 24.9308 22.7372 24.9929 22.584 25.2226L23.416 25.7774ZM20.584 28.2226C20.4308 28.4524 20.4929 28.7628 20.7226 28.916C20.9524 29.0692 21.2628 29.0071 21.416 28.7774L20.584 28.2226ZM20 30.5C19.7239 30.5 19.5 30.7239 19.5 31C19.5 31.2761 19.7239 31.5 20 31.5V30.5ZM34.1253 24.0736L33.9781 23.5957L33.9781 23.5957L34.1253 24.0736ZM42.5 31C42.5 34.0376 40.0376 36.5 37 36.5V37.5C40.5899 37.5 43.5 34.5899 43.5 31H42.5ZM37 36.5C33.9624 36.5 31.5 34.0376 31.5 31H30.5C30.5 34.5899 33.4101 37.5 37 37.5V36.5ZM31.5 31C31.5 27.9624 33.9624 25.5 37 25.5V24.5C33.4101 24.5 30.5 27.4101 30.5 31H31.5ZM37 25.5C40.0376 25.5 42.5 27.9624 42.5 31H43.5C43.5 27.4101 40.5899 24.5 37 24.5V25.5ZM10 36.5C6.96243 36.5 4.5 34.0376 4.5 31H3.5C3.5 34.5899 6.41015 37.5 10 37.5V36.5ZM4.5 31C4.5 27.9624 6.96243 25.5 10 25.5V24.5C6.41015 24.5 3.5 27.4101 3.5 31H4.5ZM10 25.5C12.7247 25.5 14.9876 27.4819 15.4239 30.0827L16.4102 29.9173C15.8943 26.8427 13.2212 24.5 10 24.5V25.5ZM15.3268 32.3754C14.7162 34.7477 12.5621 36.5 10 36.5V37.5C13.0294 37.5 15.5737 35.428 16.2952 32.6246L15.3268 32.3754ZM39.5 31C39.5 32.3807 38.3807 33.5 37 33.5V34.5C38.933 34.5 40.5 32.933 40.5 31H39.5ZM37 33.5C35.6193 33.5 34.5 32.3807 34.5 31H33.5C33.5 32.933 35.067 34.5 37 34.5V33.5ZM34.5 31C34.5 29.6193 35.6193 28.5 37 28.5V27.5C35.067 27.5 33.5 29.067 33.5 31H34.5ZM37 28.5C38.3807 28.5 39.5 29.6193 39.5 31H40.5C40.5 29.067 38.933 27.5 37 27.5V28.5ZM10 33.5C8.61929 33.5 7.5 32.3807 7.5 31H6.5C6.5 32.933 8.067 34.5 10 34.5V33.5ZM7.5 31C7.5 29.6193 8.61929 28.5 10 28.5V27.5C8.067 27.5 6.5 29.067 6.5 31H7.5ZM10 28.5C10.9247 28.5 11.7328 29.0018 12.1659 29.7504L13.0315 29.2496C12.427 28.2048 11.2961 27.5 10 27.5V28.5ZM12.0616 32.4147C11.61 33.0712 10.855 33.5 10 33.5V34.5C11.1981 34.5 12.2553 33.8976 12.8855 32.9814L12.0616 32.4147ZM12.1659 29.7504C12.2421 29.8821 12.3065 30.0213 12.3579 30.1666L13.3007 29.8334C13.2286 29.6294 13.1382 29.4341 13.0315 29.2496L12.1659 29.7504ZM31.0822 15.5068L28.0822 15.0068L27.9178 15.9932L30.9178 16.4932L31.0822 15.5068ZM31.9178 13.9932C33.7822 14.3039 37.7492 16.158 38.5058 21.076L39.4942 20.924C38.6508 15.442 34.2178 13.3627 32.0822 13.0068L31.9178 13.9932ZM38.5713 20.7428L37.0713 23.2428L37.9288 23.7572L39.4288 21.2572L38.5713 20.7428ZM30 35H18.5V36H30V35ZM18.9472 35.2764L17.4472 32.2764L16.5528 32.7236L18.0528 35.7236L18.9472 35.2764ZM17 32H10.5V33H17V32ZM9.99998 31.5V31H8.99998V31.5H9.99998ZM10.5 30.5H17.5V29.5H10.5V30.5ZM17.9642 30.1857L18.9642 27.6857L18.0357 27.3143L17.0357 29.8143L17.9642 30.1857ZM18.8057 27.1044L7.80571 18.6044L7.19426 19.3956L18.1943 27.8956L18.8057 27.1044ZM7.98808 18.8915C7.81672 18.1204 7.57313 17.1487 7.42963 16.3492C7.35744 15.947 7.31818 15.6268 7.32028 15.4191C7.3214 15.3081 7.33461 15.281 7.32746 15.2986C7.32214 15.3117 7.29934 15.363 7.23889 15.4132C7.16957 15.4707 7.08265 15.5 6.99999 15.5V14.5C6.85482 14.5 6.71452 14.5488 6.6002 14.6437C6.49474 14.7312 6.43533 14.8377 6.40104 14.9221C6.33595 15.0823 6.32181 15.2622 6.32033 15.409C6.31722 15.7169 6.37171 16.1155 6.44536 16.5258C6.59352 17.3513 6.84991 18.3796 7.01189 19.1085L7.98808 18.8915ZM6.99999 15.5C6.99635 15.5 7.05521 15.5053 7.21519 15.5483C7.35755 15.5866 7.54116 15.6436 7.76036 15.7166C8.19826 15.8624 8.7519 16.063 9.35337 16.2823C10.5431 16.716 11.9264 17.2255 12.8684 17.4824L13.1315 16.5176C12.2402 16.2745 10.9063 15.784 9.69586 15.3427C9.09721 15.1245 8.52996 14.9189 8.07628 14.7678C7.8497 14.6923 7.64485 14.6283 7.47484 14.5826C7.32245 14.5416 7.14504 14.5 6.99999 14.5V15.5ZM12.5256 17.1581L13.5256 20.1581L14.4743 19.8419L13.4743 16.8419L12.5256 17.1581ZM13.8563 20.4789L18.8563 21.9789L19.1437 21.0211L14.1437 19.5211L13.8563 20.4789ZM19.4743 21.6581C19.7015 20.9766 20.1672 20.1553 20.7591 19.4451C21.3568 18.7279 22.0342 18.1823 22.6581 17.9743L22.3419 17.0257C21.4658 17.3177 20.6432 18.0221 19.9909 18.8049C19.3327 19.5947 18.7985 20.5234 18.5256 21.3419L19.4743 21.6581ZM22.5 18H28V17H22.5V18ZM27.8419 17.9743C28.4234 18.1682 28.7195 18.5446 29.0135 19.015C29.1526 19.2376 29.3174 19.5274 29.4984 19.7688C29.6896 20.0237 29.9328 20.2754 30.2764 20.4472L30.7236 19.5528C30.5671 19.4746 30.4353 19.3513 30.2984 19.1687C30.1513 18.9726 30.0348 18.7624 29.8615 18.485C29.5305 17.9554 29.0765 17.3318 28.1581 17.0257L27.8419 17.9743ZM30.2764 20.4472C30.9918 20.8049 31.6382 20.5951 32.1688 20.3183C32.4272 20.1835 32.6956 20.0125 32.9388 19.8651C33.1923 19.7115 33.4387 19.5702 33.6969 19.4596L33.303 18.5404C32.9779 18.6798 32.6826 18.851 32.4205 19.0099C32.1481 19.175 31.927 19.3165 31.7062 19.4317C31.2784 19.6549 31.0081 19.6951 30.7236 19.5528L30.2764 20.4472ZM34 19V16H33V19H34ZM33.9287 15.7428L32.4288 13.2428L31.5713 13.7572L33.0712 16.2572L33.9287 15.7428ZM18.8419 21.9743L24.8419 23.9743L25.1581 23.0257L19.1581 21.0257L18.8419 21.9743ZM24.5659 23.7481L26.5659 27.2481L27.4341 26.7519L25.4341 23.2519L24.5659 23.7481ZM26.5712 26.7428L25.0712 29.2428L25.9287 29.7572L27.4287 27.2572L26.5712 26.7428ZM9.99998 31C9.99998 30.7239 10.2238 30.5 10.5 30.5V29.5C9.67155 29.5 8.99998 30.1716 8.99998 31H9.99998ZM10.5 32C10.2238 32 9.99998 31.7761 9.99998 31.5H8.99998C8.99998 32.3284 9.67156 33 10.5 33V32ZM22.584 25.2226L20.584 28.2226L21.416 28.7774L23.416 25.7774L22.584 25.2226ZM20 31.5H22V30.5H20V31.5ZM25.5 31C25.5 31.8284 24.8284 32.5 24 32.5V33.5C25.3807 33.5 26.5 32.3807 26.5 31H25.5ZM24 32.5C23.1716 32.5 22.5 31.8284 22.5 31H21.5C21.5 32.3807 22.6193 33.5 24 33.5V32.5ZM22.5 31C22.5 30.1716 23.1716 29.5 24 29.5V28.5C22.6193 28.5 21.5 29.6193 21.5 31H22.5ZM24 29.5C24.8284 29.5 25.5 30.1716 25.5 31H26.5C26.5 29.6193 25.3807 28.5 24 28.5V29.5ZM32.8211 19.3195L31.4663 15.8195L30.5337 16.1805L31.8886 19.6805L32.8211 19.3195ZM37.4663 31.3195L34.5916 23.8931L33.659 24.2541L36.5337 31.6805L37.4663 31.3195ZM37.4808 23.0004C36.4288 23.0408 35.1957 23.2209 33.9781 23.5957L34.2724 24.5515C35.3991 24.2046 36.5454 24.0371 37.5192 23.9996L37.4808 23.0004ZM33.9781 23.5957C31.9942 24.2066 29.9761 25.3599 28.9161 27.352C27.8444 29.366 27.821 32.1028 29.549 35.7157L30.4511 35.2843C28.8075 31.8478 28.9256 29.4629 29.7989 27.8218C30.6838 26.1588 32.4141 25.1236 34.2724 24.5515L33.9781 23.5957Z"/>
</svg>
