<svg width="48" height="48" viewBox="0 0 48 48" xmlns="http://www.w3.org/2000/svg">
<path d="M14.5 26.5C14.7761 26.5 15 26.2761 15 26C15 25.7239 14.7761 25.5 14.5 25.5V26.5ZM8 25.5C7.72386 25.5 7.5 25.7239 7.5 26C7.5 26.2761 7.72386 26.5 8 26.5V25.5ZM40.4999 18L40.9743 17.8419L40.9445 17.7524L40.8841 17.6799L40.4999 18ZM38.9999 23.5L38.9476 23.9973L39.1848 24.0222L39.3535 23.8536L38.9999 23.5ZM30.5 33.5V34H31.0454L30.9981 33.4567L30.5 33.5ZM20 33.5L19.6464 33.8536L19.7929 34H20V33.5ZM19.3536 32.1464C19.1583 31.9512 18.8417 31.9512 18.6464 32.1464C18.4512 32.3417 18.4512 32.6583 18.6464 32.8536L19.3536 32.1464ZM35.4999 12L35.8841 11.6799L35.6099 11.3509L35.2427 11.5713L35.4999 12ZM23.9 30.3L23.5 30L23.5 30L23.9 30.3ZM25.2721 32.6838L25.7464 32.8419L25.7464 32.8419L25.2721 32.6838ZM20.5 32.5C20.7761 32.5 21 32.2761 21 32C21 31.7239 20.7761 31.5 20.5 31.5V32.5ZM3.5 32H3V32.5H3.5V32ZM2 27.5L1.59563 27.2059L1.37843 27.5046L1.6 27.8L2 27.5ZM17.5 22L17.7481 21.5659L17.6328 21.5H17.5V22ZM20.5 30C20.7761 30 21 29.7761 21 29.5C21 29.2239 20.7761 29 20.5 29V30ZM25.5 27C25.7761 27 26 26.7761 26 26.5C26 26.2239 25.7761 26 25.5 26V27ZM3.5 19.5L3.00971 19.4019L2.95723 19.6643L3.14645 19.8536L3.5 19.5ZM8.5 16V15.5H8.44511L8.39153 15.5119L8.5 16ZM13.5 16L13.9808 15.8626L13.8772 15.5H13.5V16ZM19 19.5L19.4287 19.2428L19.2831 19H19V19.5ZM20.5 22L20.0713 22.2572L20.2169 22.5H20.5V22ZM26.5 25L26.0528 25.2236L26.191 25.5H26.5V25ZM28 19.448L27.9811 19.9477L27.9884 19.9479L27.9957 19.948L28 19.448ZM11.2156 12.5749L11.6838 12.3993L11.2156 12.5749ZM33 16.5L33.4727 16.337L33.3565 16H33V16.5ZM30 16C29.7239 16 29.5 16.2239 29.5 16.5C29.5 16.7761 29.7239 17 30 17V16ZM33.6951 20.0495C33.7851 20.3105 34.0697 20.4492 34.3307 20.3592C34.5918 20.2691 34.7305 19.9845 34.6404 19.7235L33.6951 20.0495ZM37.5291 31.1682C37.622 31.4282 37.9081 31.5637 38.1682 31.4709C38.4282 31.378 38.5637 31.0919 38.4709 30.8318L37.5291 31.1682ZM35.9709 23.8318C35.878 23.5718 35.5919 23.4363 35.3318 23.5291C35.0718 23.622 34.9363 23.9081 35.0291 24.1682L35.9709 23.8318ZM43.5 31C43.5 34.0376 41.0376 36.5 38 36.5V37.5C41.5899 37.5 44.5 34.5899 44.5 31H43.5ZM38 36.5C34.9624 36.5 32.5 34.0376 32.5 31H31.5C31.5 34.5899 34.4101 37.5 38 37.5V36.5ZM32.5 31C32.5 27.9624 34.9624 25.5 38 25.5V24.5C34.4101 24.5 31.5 27.4101 31.5 31H32.5ZM38 25.5C41.0376 25.5 43.5 27.9624 43.5 31H44.5C44.5 27.4101 41.5899 24.5 38 24.5V25.5ZM16.424 31.9173C15.9876 34.5181 13.7248 36.5 11 36.5V37.5C14.2213 37.5 16.8944 35.1573 17.4102 32.0827L16.424 31.9173ZM11 36.5C8.2753 36.5 6.01246 34.5181 5.57612 31.9173L4.5899 32.0827C5.10571 35.1573 7.77881 37.5 11 37.5V36.5ZM40.5 31C40.5 32.3807 39.3807 33.5 38 33.5V34.5C39.933 34.5 41.5 32.933 41.5 31H40.5ZM38 33.5C36.6193 33.5 35.5 32.3807 35.5 31H34.5C34.5 32.933 36.067 34.5 38 34.5V33.5ZM35.5 31C35.5 29.6193 36.6193 28.5 38 28.5V27.5C36.067 27.5 34.5 29.067 34.5 31H35.5ZM38 28.5C39.3807 28.5 40.5 29.6193 40.5 31H41.5C41.5 29.067 39.933 27.5 38 27.5V28.5ZM13.3578 31.8334C13.0144 32.805 12.0877 33.5 10.9999 33.5V34.5C12.5247 34.5 13.8204 33.5253 14.3007 32.1666L13.3578 31.8334ZM10.9999 33.5C9.91221 33.5 8.98551 32.805 8.64207 31.8334L7.69923 32.1666C8.17947 33.5253 9.47525 34.5 10.9999 34.5V33.5ZM14.5 25.5H8V26.5H14.5V25.5ZM40.0256 18.1581C40.3164 19.0307 40.4775 21.3153 38.6464 23.1464L39.3535 23.8536C41.5223 21.6847 41.3501 18.9693 40.9743 17.8419L40.0256 18.1581ZM39.0523 23.0027C37.3998 22.8288 34.9285 23.0292 32.9597 24.5271C30.957 26.0508 29.5916 28.8247 30.0019 33.5433L30.9981 33.4567C30.6084 28.9753 31.9096 26.5826 33.5652 25.3229C35.2548 24.0375 37.4334 23.8379 38.9476 23.9973L39.0523 23.0027ZM20.3536 33.1464L19.3536 32.1464L18.6464 32.8536L19.6464 33.8536L20.3536 33.1464ZM35.2427 11.5713C34.6887 11.9037 34.1225 12.6232 34.039 13.6988C33.9557 14.7722 34.3553 16.1404 35.6 17.8L36.4 17.2C35.2447 15.6596 34.9776 14.5278 35.036 13.7762C35.0941 13.0268 35.4779 12.5963 35.7572 12.4287L35.2427 11.5713ZM35.1158 12.3201L39.6159 17.7202L40.3841 17.08L35.8841 11.6799L35.1158 12.3201ZM39.6159 17.7202L40.1158 18.3201L40.8841 17.6799L40.3841 17.08L39.6159 17.7202ZM36.0125 17.9998L40.0125 17.8999L39.9875 16.9002L35.9875 17.0002L36.0125 17.9998ZM35.608 17.1896L26.108 29.1896L26.892 29.8104L36.392 17.8104L35.608 17.1896ZM26.5 29H25.5V30H26.5V29ZM21.5 33H20V34H21.5V33ZM23.5 30L21.1 33.2L21.9 33.8L24.3 30.6L23.5 30ZM26.5 30H27.5V29H26.5V30ZM28 30.5V31H29V30.5H28ZM27.5 31.5H26.2208V32.5H27.5V31.5ZM30.5 33H25V34H30.5V33ZM25 33H21.5V34H25V33ZM24.7977 32.5257L24.5257 33.3419L25.4743 33.6581L25.7464 32.8419L24.7977 32.5257ZM26.2208 31.5C25.5751 31.5 25.0019 31.9131 24.7977 32.5257L25.7464 32.8419C25.8145 32.6377 26.0055 32.5 26.2208 32.5V31.5ZM28 31C28 31.2761 27.7761 31.5 27.5 31.5V32.5C28.3284 32.5 29 31.8284 29 31H28ZM27.5 30C27.7761 30 28 30.2239 28 30.5H29C29 29.6716 28.3284 29 27.5 29V30ZM25.5 29C24.7131 29 23.9721 29.3705 23.5 30L24.3 30.6C24.5833 30.2223 25.0279 30 25.5 30V29ZM20.5 31.5H3.5V32.5H20.5V31.5ZM4 32V29.5H3V32H4ZM3.9 29.2L2.4 27.2L1.6 27.8L3.1 29.8L3.9 29.2ZM2.40437 27.7941L6.40437 22.2941L5.59563 21.7059L1.59563 27.2059L2.40437 27.7941ZM6 22.5H17.5V21.5H6V22.5ZM3.5 30H17V29H3.5V30ZM17 30H20.5V29H17V30ZM17.2519 22.4341C17.6992 22.6897 18.2781 23.3245 18.3902 24.4017C18.5024 25.4804 18.1509 27.0674 16.5956 29.2059L17.4044 29.7941C19.0491 27.5326 19.5309 25.7029 19.3848 24.2983C19.2385 22.8922 18.4675 21.977 17.7481 21.5659L17.2519 22.4341ZM23.5 26.5C23.5 27.0523 23.0523 27.5 22.5 27.5V28.5C23.6046 28.5 24.5 27.6046 24.5 26.5H23.5ZM22.5 27.5C21.9477 27.5 21.5 27.0523 21.5 26.5H20.5C20.5 27.6046 21.3954 28.5 22.5 28.5V27.5ZM21.5 26.5C21.5 25.9477 21.9477 25.5 22.5 25.5V24.5C21.3954 24.5 20.5 25.3954 20.5 26.5H21.5ZM22.5 25.5C23.0523 25.5 23.5 25.9477 23.5 26.5H24.5C24.5 25.3954 23.6046 24.5 22.5 24.5V25.5ZM24 27H25.5V26H24V27ZM6.35355 21.6464L3.85355 19.1464L3.14645 19.8536L5.64645 22.3536L6.35355 21.6464ZM3.99029 19.5981C4.10572 19.0209 5.13131 17.2608 8.60847 16.4881L8.39153 15.5119C4.66869 16.3392 3.22762 18.3124 3.00971 19.4019L3.99029 19.5981ZM15 20H19V19H15V20ZM18.5713 19.7572L20.0713 22.2572L20.9287 21.7428L19.4287 19.2428L18.5713 19.7572ZM20.5 22.5H25V21.5H20.5V22.5ZM24.5528 22.2236L26.0528 25.2236L26.9472 24.7764L25.4472 21.7764L24.5528 22.2236ZM26.5 25.5H30.5V24.5H26.5V25.5ZM25.4932 22.0822C25.5579 21.6938 25.7664 21.1296 26.1684 20.6813C26.556 20.249 27.1283 19.9154 27.9811 19.9477L28.0189 18.9484C26.8401 18.9038 25.9898 19.3825 25.4239 20.0137C24.8724 20.6287 24.5966 21.3788 24.5068 21.9178L25.4932 22.0822ZM27.9957 19.948C32.7939 19.9896 34.3305 20 34.5 20V19C34.3362 19 32.8061 18.9896 28.0043 18.948L27.9957 19.948ZM13.0192 16.1374C13.2127 16.8145 13.5531 17.8901 13.8898 18.6933L14.812 18.3067C14.4977 17.5569 14.1699 16.5247 13.9808 15.8626L13.0192 16.1374ZM13.8898 18.6933C14.014 18.9896 14.1458 19.2685 14.2777 19.4804C14.3426 19.5847 14.4204 19.6938 14.5116 19.7828C14.5884 19.8577 14.7568 20 15 20V19C15.158 19 15.2329 19.0894 15.2097 19.0668C15.201 19.0583 15.1725 19.0256 15.1267 18.9519C15.037 18.8079 14.9295 18.5868 14.812 18.3067L13.8898 18.6933ZM13.4665 22.18L14.8174 18.68L13.8845 18.32L12.5335 21.82L13.4665 22.18ZM8.5 16.5H9.5V15.5H8.5V16.5ZM10 16V12.886H9V16H10ZM9.5 16.5H12.5V15.5H9.5V16.5ZM12.5 16.5H13.5V15.5H12.5V16.5ZM10.7474 12.7505L12.0318 16.1756L12.9682 15.8244L11.6838 12.3993L10.7474 12.7505ZM10.386 12.5C10.5469 12.5 10.6909 12.5998 10.7474 12.7505L11.6838 12.3993C11.4809 11.8584 10.9637 11.5 10.386 11.5V12.5ZM10 12.886C10 12.6728 10.1728 12.5 10.386 12.5V11.5C9.62053 11.5 9 12.1205 9 12.886H10ZM33 16H30V17H33V16ZM34.6404 19.7235L33.4727 16.337L32.5273 16.663L33.6951 20.0495L34.6404 19.7235ZM38.4709 30.8318L35.9709 23.8318L35.0291 24.1682L37.5291 31.1682L38.4709 30.8318Z"/>
</svg>
