<svg width="24" height="23" viewBox="0 0 24 23" fill="none" xmlns="http://www.w3.org/2000/svg">
<path fill-rule="evenodd" clip-rule="evenodd" d="M5.78163 3.6676L6.39558 4.81363C7.84671 7.52242 9.91846 8.35344 11.2089 8.5171V8.0322C11.2089 5.68805 13.1091 3.78774 15.4533 3.78774C17.7974 3.78774 19.6978 5.68805 19.6978 8.0322V9.46956C19.6978 15.7468 15.2475 19.8862 10.1266 19.8862C7.87611 19.8862 6.28638 19.152 5.25083 18.385C4.73787 18.005 4.36734 17.622 4.12081 17.327C3.9974 17.1794 3.90445 17.0531 3.83968 16.9589C3.80726 16.912 3.78183 16.8729 3.76308 16.8431C3.75372 16.8283 3.74601 16.8157 3.73994 16.8056L3.73204 16.7924L3.729 16.7873L3.72771 16.785L3.72712 16.7839C3.72712 16.7839 3.72656 16.783 4.54623 16.3087L3.72656 16.783L2.9043 15.3618H4.54623C5.59165 15.3618 6.20707 15.3578 6.81199 15.1993C7.38877 15.048 8.01863 14.7355 8.97649 13.9906L10.1393 15.4855C9.06789 16.3188 8.20655 16.7916 7.29212 17.0313C7.12472 17.0751 6.9577 17.1105 6.79024 17.1389C7.53812 17.5899 8.62198 17.9923 10.1266 17.9923C14.1372 17.9923 17.8038 14.7663 17.8038 9.46956V8.0322C17.8038 6.73404 16.7515 5.68168 15.4533 5.68168C14.1552 5.68168 13.1028 6.73404 13.1028 8.0322V10.3017L12.2775 10.4087C10.7701 10.6041 7.79329 10.0372 5.58169 7.06208C5.50098 7.36461 5.48102 7.67751 5.52282 7.98885C5.62105 8.7204 6.07709 9.55202 7.11398 10.2689L6.03693 11.8267C4.63875 10.8602 3.82652 9.58744 3.64573 8.24089C3.46521 6.89637 3.93103 5.58674 4.87916 4.60348L5.78163 3.6676Z" fill="#0C0C0C"/>
<path fill-rule="evenodd" clip-rule="evenodd" d="M5.92953 12.1964C6.47697 12.1178 6.96762 11.8233 7.19756 11.6562L8.31076 13.1884C7.96668 13.4384 7.18206 13.9299 6.19865 14.0711C5.14928 14.2218 3.9222 13.9595 2.89062 12.7655L4.32382 11.5273C4.88866 12.1811 5.44803 12.2655 5.92953 12.1964Z" fill="#0C0C0C"/>
<path fill-rule="evenodd" clip-rule="evenodd" d="M19.4951 5.19205C19.6058 5.05765 19.686 4.84804 19.6846 4.49028L21.5786 4.48328C21.5809 5.11916 21.4374 5.81275 20.9571 6.39599C20.4753 6.98121 19.7604 7.32673 18.879 7.47801L18.5586 5.61136C19.1426 5.51113 19.3861 5.32451 19.4951 5.19205Z" fill="#0C0C0C"/>
</svg>
