<svg width="12" height="12" viewBox="0 0 12 12" fill="none" xmlns="http://www.w3.org/2000/svg">
<path d="M6.44 10.4301H3.405C1.63 10.4301 1 9.18507 1 8.02507V3.97507C1 2.24507 1.675 1.57007 3.405 1.57007H6.44C8.17 1.57007 8.845 2.24507 8.845 3.97507V8.02507C8.845 9.75507 8.17 10.4301 6.44 10.4301ZM3.405 2.33007C2.1 2.33007 1.76 2.67007 1.76 3.97507V8.02507C1.76 8.64007 1.975 9.67007 3.405 9.67007H6.44C7.745 9.67007 8.085 9.33007 8.085 8.02507V3.97507C8.085 2.67007 7.745 2.33007 6.44 2.33007H3.405V2.33007Z" fill="white"/>
<path d="M10.3898 9.055C10.1748 9.055 9.89984 8.985 9.58484 8.765L8.24984 7.83C8.14984 7.76 8.08984 7.645 8.08984 7.52V4.48C8.08984 4.355 8.14984 4.24 8.24984 4.17L9.58484 3.235C10.1798 2.82 10.6148 2.94 10.8198 3.045C11.0248 3.155 11.3748 3.44 11.3748 4.165V7.83C11.3748 8.555 11.0248 8.845 10.8198 8.95C10.7248 9.005 10.5748 9.055 10.3898 9.055ZM8.84484 7.32L10.0198 8.14C10.2448 8.295 10.4048 8.31 10.4698 8.275C10.5398 8.24 10.6148 8.1 10.6148 7.83V4.17C10.6148 3.895 10.5348 3.76 10.4698 3.725C10.4048 3.69 10.2448 3.705 10.0198 3.86L8.84484 4.68V7.32Z" fill="white"/>
<path d="M5.75 5.875C5.13 5.875 4.625 5.37 4.625 4.75C4.625 4.13 5.13 3.625 5.75 3.625C6.37 3.625 6.875 4.13 6.875 4.75C6.875 5.37 6.37 5.875 5.75 5.875ZM5.75 4.375C5.545 4.375 5.375 4.545 5.375 4.75C5.375 4.955 5.545 5.125 5.75 5.125C5.955 5.125 6.125 4.955 6.125 4.75C6.125 4.545 5.955 4.375 5.75 4.375Z" fill="white"/>
</svg>
