<svg width="23" height="23" viewBox="0 0 23 23" fill="none" xmlns="http://www.w3.org/2000/svg">
<path fill-rule="evenodd" clip-rule="evenodd" d="M9.74355 9.02684V13.7003L13.6382 11.3636L9.74355 9.02684ZM7.84961 15.3729C7.84961 16.109 8.65261 16.5636 9.28379 16.1849L15.9659 12.1756C16.579 11.8078 16.579 10.9194 15.9659 10.5516L9.28379 6.5423C8.65261 6.16359 7.84961 6.61825 7.84961 7.35432V15.3729Z" fill="#0C0C0C"/>
<path fill-rule="evenodd" clip-rule="evenodd" d="M19.2134 16.5979V6.12841C19.2134 5.3788 18.8088 4.9108 18.3647 4.77453C16.839 4.30645 14.4997 3.78737 11.6377 3.78737C8.77565 3.78737 6.43636 4.30645 4.91068 4.77453C4.46652 4.9108 4.06191 5.3788 4.06191 6.12841V16.5979C4.06191 17.3474 4.46652 17.8155 4.91068 17.9518C6.43636 18.4198 8.77565 18.9389 11.6377 18.9389C14.4997 18.9389 16.839 18.4198 18.3647 17.9518C18.8088 17.8155 19.2134 17.3474 19.2134 16.5979ZM4.35518 2.96389C2.98354 3.3847 2.16797 4.69367 2.16797 6.12841V16.5979C2.16797 18.0326 2.98354 19.3415 4.35518 19.7624C6.02027 20.2732 8.54916 20.8328 11.6377 20.8328C14.7262 20.8328 17.2551 20.2732 18.9201 19.7624C20.2918 19.3415 21.1074 18.0326 21.1074 16.5979V6.12841C21.1074 4.69367 20.2918 3.3847 18.9201 2.96389C17.2551 2.45304 14.7262 1.89343 11.6377 1.89343C8.54916 1.89343 6.02027 2.45304 4.35518 2.96389Z" fill="#0C0C0C"/>
</svg>
